<?xml version="1.0" encoding="UTF-8" standalone="no"?>
<!DOCTYPE svg PUBLIC "-//W3C//DTD SVG 1.1//EN" "http://www.w3.org/Graphics/SVG/1.1/DTD/svg11.dtd">
<svg xmlns="http://www.w3.org/2000/svg" version="1.1" viewBox="0.00 0.00 512.00 512.00">
<path fill="#fc0005" d="
  M 512.00 242.65
  L 512.00 269.97
  Q 508.54 328.26 481.94 377.20
  Q 457.91 421.42 420.55 452.56
  Q 355.68 506.63 269.87 512.00
  L 242.50 512.00
  Q 150.48 505.99 83.41 445.07
  C 33.78 399.99 3.81 336.06 0.58 268.34
  C -4.31 165.58 52.68 70.49 145.09 25.64
  C 203.08 -2.49 270.58 -7.33 332.25 11.75
  C 395.89 31.45 449.30 75.75 481.42 134.34
  Q 508.54 183.82 512.00 242.65
  Z
  M 249.68 117.04
  L 262.80 117.04
  A 0.22 0.22 0.0 0 0 263.02 116.82
  L 263.02 100.75
  A 6.95 6.70 -90.0 0 0 256.32 93.80
  L 256.16 93.80
  A 6.95 6.70 -90.0 0 0 249.46 100.75
  L 249.46 116.82
  A 0.22 0.22 0.0 0 0 249.68 117.04
  Z
  M 335.18 196.85
  C 324.67 141.92 264.06 114.37 215.67 142.21
  C 195.60 153.76 181.71 173.93 177.37 196.45
  Q 175.78 204.67 175.87 216.92
  Q 176.08 244.40 175.91 270.22
  Q 175.82 284.39 169.27 295.90
  Q 156.00 319.23 141.25 344.39
  C 139.10 348.05 137.33 351.63 140.76 355.45
  Q 142.02 356.86 147.16 357.98
  Q 256.76 382.00 366.36 357.79
  Q 369.71 357.05 371.10 355.95
  C 373.58 353.99 374.44 350.20 372.82 347.36
  Q 359.41 323.84 345.93 300.81
  C 340.25 291.10 336.70 282.24 336.62 271.33
  Q 336.40 241.97 336.62 216.17
  Q 336.72 204.92 335.18 196.85
  Z
  M 214.97 381.80
  A 0.41 0.40 87.7 0 0 214.54 382.27
  Q 217.20 399.28 230.12 409.58
  C 243.07 419.89 261.09 421.63 275.52 414.00
  Q 294.18 404.12 297.96 382.46
  Q 298.09 381.72 297.34 381.78
  Q 257.65 385.16 214.97 381.80
  Z"
/>
<path fill="#fc0005" d="
  M 279.39 157.32
  Q 309.67 171.53 314.36 204.80
  Q 314.69 207.11 314.70 210.02
  C 314.72 214.37 311.88 217.80 307.40 217.47
  C 302.84 217.13 301.24 213.60 301.07 209.32
  Q 300.22 188.73 283.46 175.30
  C 276.46 169.69 266.31 165.90 256.58 165.95
  C 246.95 166.01 246.88 151.73 257.85 152.45
  Q 270.84 153.30 279.39 157.32
  Z"
/>
</svg>
