<?xml version="1.0" encoding="UTF-8" standalone="no"?>
<!DOCTYPE svg PUBLIC "-//W3C//DTD SVG 1.1//EN" "http://www.w3.org/Graphics/SVG/1.1/DTD/svg11.dtd">
<svg xmlns="http://www.w3.org/2000/svg" version="1.1" viewBox="0.00 0.00 154.00 24.00">
<path fill="#57a4ff" d="
  M 4.85 9.02
  Q 4.85 9.20 5.03 9.20
  L 12.74 9.43
  Q 12.93 9.44 12.94 9.25
  L 13.27 1.86
  A 1.67 1.67 0.0 0 1 14.88 0.27
  L 15.39 0.25
  Q 17.36 0.18 17.34 2.15
  L 17.23 21.14
  Q 17.22 23.24 15.11 23.25
  L 14.70 23.25
  A 1.69 1.68 89.7 0 1 13.01 21.57
  L 13.00 13.23
  A 0.27 0.26 -0.0 0 0 12.73 12.97
  L 5.21 13.09
  A 0.46 0.45 -0.7 0 0 4.76 13.54
  L 4.74 21.23
  Q 4.73 23.45 2.52 23.26
  L 2.09 23.22
  A 1.75 1.74 -87.2 0 1 0.50 21.46
  L 0.72 2.54
  Q 0.75 0.32 2.96 0.25
  L 3.36 0.24
  A 1.38 1.38 0.0 0 1 4.79 1.61
  L 4.85 9.02
  Z"
/>
<path fill="#57a4ff" d="
  M 85.90 15.25
  Q 84.45 15.29 83.35 14.40
  A 1.51 1.51 0.0 0 1 84.27 11.72
  L 89.37 11.64
  A 1.36 1.35 86.5 0 1 90.74 12.86
  C 91.26 18.11 90.45 23.36 83.72 23.37
  Q 79.66 23.37 77.21 21.26
  C 72.42 17.15 72.93 5.90 77.79 2.02
  C 82.27 -1.56 90.68 0.25 90.72 7.37
  A 1.78 1.77 82.6 0 1 89.41 9.09
  C 87.35 9.64 86.77 6.97 86.12 5.66
  Q 85.89 5.19 85.41 4.99
  C 76.96 1.38 74.86 20.28 84.22 19.15
  Q 85.83 18.96 86.41 17.44
  L 86.77 16.48
  Q 87.25 15.21 85.90 15.25
  Z"
/>
<path fill="#57a4ff" d="
  M 149.66 8.78
  L 149.66 1.94
  A 1.42 1.42 0.0 0 1 151.31 0.54
  L 151.79 0.61
  Q 153.50 0.89 153.50 2.62
  L 153.48 21.20
  Q 153.48 22.66 152.06 23.02
  C 147.23 24.25 141.11 22.58 140.93 16.51
  C 140.76 11.09 144.43 9.67 149.00 9.47
  Q 149.66 9.44 149.66 8.78
  Z
  M 149.66 18.67
  L 149.66 13.85
  A 0.77 0.77 0.0 0 0 148.90 13.08
  L 147.58 13.08
  A 2.96 2.87 -89.9 0 0 144.70 16.04
  L 144.70 16.48
  A 2.96 2.87 -89.9 0 0 147.56 19.44
  L 148.88 19.44
  A 0.77 0.77 0.0 0 0 149.66 18.67
  Z"
/>
<path fill="#57a4ff" d="
  M 132.44 8.91
  Q 136.48 6.31 140.15 9.52
  A 1.41 1.38 -65.9 0 1 140.61 10.76
  C 140.44 12.05 139.32 12.54 138.18 12.03
  Q 134.75 10.50 132.27 13.29
  Q 132.01 13.58 132.01 13.97
  L 131.97 21.15
  A 2.15 2.14 -1.7 0 1 129.96 23.28
  L 129.38 23.32
  A 1.49 1.49 0.0 0 1 127.79 21.90
  C 127.63 18.40 126.92 10.36 127.93 8.08
  A 2.17 1.73 -48.2 0 1 131.49 7.48
  L 131.98 8.76
  Q 132.12 9.12 132.44 8.91
  Z"
/>
<path fill="#57a4ff" d="
  M 27.2994 23.3757
  A 7.86 7.58 91.9 0 1 19.9842 15.2687
  A 7.86 7.58 91.9 0 1 27.8206 7.6643
  A 7.86 7.58 91.9 0 1 35.1358 15.7713
  A 7.86 7.58 91.9 0 1 27.2994 23.3757
  Z
  M 31.09 15.55
  A 3.64 3.64 0.0 0 0 27.45 11.91
  A 3.64 3.64 0.0 0 0 23.81 15.55
  A 3.64 3.64 0.0 0 0 27.45 19.19
  A 3.64 3.64 0.0 0 0 31.09 15.55
  Z"
/>
<path fill="#57a4ff" d="
  M 41.75 9.71
  Q 44.05 7.43 46.95 9.30
  Q 47.41 9.59 47.90 9.36
  C 56.18 5.32 55.21 16.45 54.96 21.33
  Q 54.87 23.08 53.12 22.97
  L 52.66 22.94
  A 1.30 1.29 1.7 0 1 51.45 21.66
  L 51.40 13.59
  Q 51.39 12.39 50.19 12.39
  L 49.69 12.39
  A 1.18 1.18 0.0 0 0 48.52 13.56
  L 48.49 21.43
  A 1.48 1.48 0.0 0 1 46.99 22.90
  L 46.55 22.89
  A 1.35 1.34 -89.8 0 1 45.23 21.55
  L 45.16 13.86
  A 1.36 1.36 0.0 0 0 43.36 12.58
  L 42.98 12.71
  A 1.70 1.69 80.8 0 0 41.84 14.30
  L 41.81 20.67
  Q 41.80 22.61 39.88 22.82
  L 39.40 22.87
  A 1.37 1.37 0.0 0 1 37.88 21.53
  L 37.72 9.12
  A 1.50 1.50 0.0 0 1 39.26 7.60
  Q 41.18 7.66 41.25 9.52
  Q 41.28 10.18 41.75 9.71
  Z"
/>
<path fill="#57a4ff" d="
  M 99.99 19.26
  L 100.60 19.23
  A 1.95 1.95 0.0 0 0 102.47 17.28
  L 102.47 9.41
  A 1.58 1.58 0.0 0 1 103.82 7.85
  L 104.35 7.77
  Q 106.25 7.48 106.39 9.39
  C 106.87 15.83 107.73 23.23 100.24 23.31
  C 92.23 23.39 93.18 15.37 93.64 9.23
  Q 93.78 7.46 95.54 7.63
  L 95.81 7.66
  A 1.47 1.47 0.0 0 1 97.14 9.05
  L 97.51 16.99
  A 2.38 2.38 0.0 0 0 99.99 19.26
  Z"
/>
<path fill="#57a4ff" d="
  M 62.05 16.92
  Q 60.95 17.01 61.52 17.94
  L 61.71 18.25
  Q 62.21 19.06 63.15 19.20
  Q 66.31 19.67 69.28 18.52
  A 1.26 1.26 0.0 0 1 71.00 19.78
  C 70.65 25.03 53.05 24.44 58.50 11.74
  C 60.99 5.97 70.40 7.21 71.33 13.26
  C 72.10 18.33 64.90 16.71 62.05 16.92
  Z
  M 61.94 13.88
  L 67.76 13.90
  A 0.17 0.17 0.0 0 0 67.93 13.73
  L 67.93 13.64
  A 2.92 2.36 0.1 0 0 65.01 11.27
  L 64.69 11.27
  A 2.92 2.36 0.1 0 0 61.77 13.62
  L 61.77 13.71
  A 0.17 0.17 0.0 0 0 61.94 13.88
  Z"
/>
<path fill="#57a4ff" d="
  M 120.45 21.07
  Q 118.27 23.25 115.00 22.83
  C 104.78 21.51 109.13 5.48 119.01 9.31
  Q 121.39 10.23 122.18 13.01
  Q 123.22 16.67 124.90 20.11
  Q 125.14 20.60 125.00 21.14
  Q 124.66 22.47 123.31 22.66
  Q 122.84 22.72 122.51 22.39
  L 121.18 21.07
  Q 120.82 20.71 120.45 21.07
  Z
  M 115.3149 19.2742
  A 3.53 3.27 100.2 0 0 119.1583 16.3791
  A 3.53 3.27 100.2 0 0 116.5651 12.3258
  A 3.53 3.27 100.2 0 0 112.7217 15.2209
  A 3.53 3.27 100.2 0 0 115.3149 19.2742
  Z"
/>
</svg>
