<?xml version="1.0" encoding="UTF-8" standalone="no"?>
<!DOCTYPE svg PUBLIC "-//W3C//DTD SVG 1.1//EN" "http://www.w3.org/Graphics/SVG/1.1/DTD/svg11.dtd">
<svg xmlns="http://www.w3.org/2000/svg" version="1.1" viewBox="0.00 0.00 166.00 128.00">
<g stroke-width="2.00" fill="none" stroke-linecap="butt">
<path stroke="#8bc0ff" vector-effect="non-scaling-stroke" d="
  M 117.1598 6.8378
  A 1.20 1.20 0.0 0 0 115.9577 5.6399
  L 104.3977 5.6601
  A 1.20 1.20 0.0 0 0 103.1998 6.8622
  L 103.2002 7.0822
  A 1.20 1.20 0.0 0 0 104.4023 8.2801
  L 115.9623 8.2599
  A 1.20 1.20 0.0 0 0 117.1602 7.0578
  L 117.1598 6.8378"
/>
<path stroke="#8bc0ff" vector-effect="non-scaling-stroke" d="
  M 80.62 9.88
  A 0.78 0.78 0.0 0 1 81.42 9.88
  L 118.62 32.29
  A 0.78 0.78 0.0 0 0 119.70 32.01
  L 120.60 30.41
  A 0.78 0.78 0.0 0 0 120.32 29.36
  L 81.38 6.02
  A 0.78 0.78 0.0 0 0 80.58 6.02
  L 41.77 29.34
  A 0.78 0.78 0.0 0 0 41.44 30.28
  L 42.08 32.00
  A 0.78 0.78 0.0 0 0 43.21 32.40
  L 80.62 9.88"
/>
<path stroke="#8bc0ff" vector-effect="non-scaling-stroke" d="
  M 120.00 82.02
  A 1.42 1.42 0.0 0 0 118.58 80.60
  L 43.42 80.60
  A 1.42 1.42 0.0 0 0 42.00 82.02
  L 42.00 82.06
  A 1.42 1.42 0.0 0 0 43.42 83.48
  L 118.58 83.48
  A 1.42 1.42 0.0 0 0 120.00 82.06
  L 120.00 82.02"
/>
<path stroke="#8bc0ff" vector-effect="non-scaling-stroke" d="
  M 59.64 45.89
  C 63.26 45.84 65.97 46.02 68.52 48.81
  A 1.38 1.37 46.0 0 0 70.51 48.85
  C 74.65 44.67 76.05 44.75 80.35 48.76
  A 0.95 0.95 0.0 0 0 81.64 48.77
  C 86.24 44.61 87.44 44.65 91.72 49.08
  A 0.75 0.74 50.8 0 0 92.68 49.18
  C 96.34 46.70 97.88 45.47 102.57 45.96
  A 0.65 0.65 0.0 0 0 103.29 45.27
  C 101.29 16.94 61.75 16.31 58.65 44.80
  Q 58.53 45.90 59.64 45.89"
/>
<path stroke="#8bc0ff" vector-effect="non-scaling-stroke" d="
  M 81.45 29.25
  C 87.74 29.22 93.36 33.28 96.19 38.80
  A 0.96 0.95 66.8 0 0 97.35 39.27
  L 97.73 39.14
  Q 99.26 38.60 98.49 37.18
  Q 93.00 27.08 81.43 26.38
  A 0.41 0.40 -88.0 0 0 81.00 26.79
  L 81.00 28.80
  Q 81.00 29.25 81.45 29.25"
/>
</g>
<path fill="#57a4ff" d="
  M 102.86 15.69
  Q 103.25 15.92 103.25 15.46
  L 103.25 11.25
  A 0.68 0.68 0.0 0 0 102.85 10.63
  C 99.98 9.38 99.79 4.93 102.29 3.49
  C 104.91 1.99 112.36 2.77 115.49 2.85
  C 120.42 2.98 121.35 8.27 117.48 10.74
  A 0.90 0.88 -16.9 0 0 117.06 11.51
  L 117.07 23.61
  Q 117.08 24.18 117.56 24.48
  C 120.69 26.38 125.58 28.59 122.19 33.23
  Q 120.53 35.49 117.54 34.86
  Q 117.06 34.75 117.06 35.25
  L 117.07 77.05
  Q 117.07 77.68 117.69 77.74
  C 124.58 78.41 123.88 86.24 118.50 86.24
  Q 81.12 86.25 43.75 86.25
  C 37.69 86.25 37.81 77.36 44.44 77.94
  A 0.44 0.44 0.0 0 0 44.93 77.50
  L 44.94 35.28
  Q 44.94 34.86 44.52 34.90
  C 39.07 35.48 36.35 29.37 41.45 26.31
  Q 60.14 15.10 78.58 4.04
  Q 81.00 2.59 83.42 4.04
  L 102.86 15.69
  Z
  M 117.1598 6.8378
  A 1.20 1.20 0.0 0 0 115.9577 5.6399
  L 104.3977 5.6601
  A 1.20 1.20 0.0 0 0 103.1998 6.8622
  L 103.2002 7.0822
  A 1.20 1.20 0.0 0 0 104.4023 8.2801
  L 115.9623 8.2599
  A 1.20 1.20 0.0 0 0 117.1602 7.0578
  L 117.1598 6.8378
  Z
  M 80.62 9.88
  A 0.78 0.78 0.0 0 1 81.42 9.88
  L 118.62 32.29
  A 0.78 0.78 0.0 0 0 119.70 32.01
  L 120.60 30.41
  A 0.78 0.78 0.0 0 0 120.32 29.36
  L 81.38 6.02
  A 0.78 0.78 0.0 0 0 80.58 6.02
  L 41.77 29.34
  A 0.78 0.78 0.0 0 0 41.44 30.28
  L 42.08 32.00
  A 0.78 0.78 0.0 0 0 43.21 32.40
  L 80.62 9.88
  Z
  M 105.99 17.39
  A 0.34 0.34 0.0 0 0 106.16 17.68
  L 113.89 22.28
  A 0.34 0.34 0.0 0 0 114.40 21.99
  L 114.42 11.43
  A 0.34 0.34 0.0 0 0 114.08 11.09
  L 106.34 11.05
  A 0.34 0.34 0.0 0 0 106.00 11.39
  L 105.99 17.39
  Z
  M 47.79 32.92
  A 0.49 0.49 0.0 0 0 47.55 33.34
  L 47.56 77.38
  A 0.49 0.49 0.0 0 0 48.05 77.87
  L 113.95 77.88
  A 0.49 0.49 0.0 0 0 114.44 77.39
  L 114.44 33.33
  A 0.49 0.49 0.0 0 0 114.20 32.91
  L 81.26 13.06
  A 0.49 0.49 0.0 0 0 80.76 13.06
  L 47.79 32.92
  Z
  M 120.00 82.02
  A 1.42 1.42 0.0 0 0 118.58 80.60
  L 43.42 80.60
  A 1.42 1.42 0.0 0 0 42.00 82.02
  L 42.00 82.06
  A 1.42 1.42 0.0 0 0 43.42 83.48
  L 118.58 83.48
  A 1.42 1.42 0.0 0 0 120.00 82.06
  L 120.00 82.02
  Z"
/>
<rect fill="#bedbff" x="-6.98" y="-1.31" transform="translate(110.18,6.96) rotate(-0.1)" width="13.96" height="2.62" rx="1.20"/>
<path fill="#bedbff" d="
  M 80.62 9.88
  L 43.21 32.40
  A 0.78 0.78 0.0 0 1 42.08 32.00
  L 41.44 30.28
  A 0.78 0.78 0.0 0 1 41.77 29.34
  L 80.58 6.02
  A 0.78 0.78 0.0 0 1 81.38 6.02
  L 120.32 29.36
  A 0.78 0.78 0.0 0 1 120.60 30.41
  L 119.70 32.01
  A 0.78 0.78 0.0 0 1 118.62 32.29
  L 81.42 9.88
  A 0.78 0.78 0.0 0 0 80.62 9.88
  Z"
/>
<path fill="#57a4ff" d="
  M 82.78 20.92
  C 97.14 22.99 105.97 32.56 106.06 47.39
  A 1.15 1.14 0.0 0 1 104.90 48.54
  Q 102.35 48.52 99.93 48.59
  C 94.26 48.74 93.93 55.88 87.49 48.76
  A 1.20 1.20 0.0 0 0 85.80 48.67
  L 82.69 51.45
  Q 82.32 51.79 82.32 52.28
  Q 82.26 61.04 82.35 69.76
  C 82.38 73.30 88.50 73.42 88.02 68.40
  Q 87.99 68.03 88.35 68.07
  L 90.50 68.26
  Q 90.73 68.28 90.74 68.52
  Q 90.95 74.36 86.02 75.05
  Q 82.25 75.58 80.59 72.73
  Q 79.67 71.15 79.68 67.60
  Q 79.72 59.96 79.70 52.34
  Q 79.70 51.82 79.31 51.47
  L 76.08 48.57
  A 0.97 0.96 -45.2 0 0 74.78 48.58
  C 73.31 49.95 71.11 52.58 68.72 51.86
  C 66.17 51.08 65.12 48.69 62.06 48.60
  Q 59.52 48.53 57.03 48.55
  A 0.96 0.96 0.0 0 1 56.06 47.65
  C 55.11 33.62 65.50 22.25 79.33 20.93
  Q 79.79 20.89 79.76 20.42
  L 79.65 18.86
  Q 79.60 18.20 80.27 18.20
  L 81.71 18.21
  Q 82.45 18.22 82.38 18.96
  L 82.24 20.22
  Q 82.18 20.83 82.78 20.92
  Z
  M 59.64 45.89
  C 63.26 45.84 65.97 46.02 68.52 48.81
  A 1.38 1.37 46.0 0 0 70.51 48.85
  C 74.65 44.67 76.05 44.75 80.35 48.76
  A 0.95 0.95 0.0 0 0 81.64 48.77
  C 86.24 44.61 87.44 44.65 91.72 49.08
  A 0.75 0.74 50.8 0 0 92.68 49.18
  C 96.34 46.70 97.88 45.47 102.57 45.96
  A 0.65 0.65 0.0 0 0 103.29 45.27
  C 101.29 16.94 61.75 16.31 58.65 44.80
  Q 58.53 45.90 59.64 45.89
  Z"
/>
<path fill="#bedbff" d="
  M 68.52 48.81
  C 65.97 46.02 63.26 45.84 59.64 45.89
  Q 58.53 45.90 58.65 44.80
  C 61.75 16.31 101.29 16.94 103.29 45.27
  A 0.65 0.65 0.0 0 1 102.57 45.96
  C 97.88 45.47 96.34 46.70 92.68 49.18
  A 0.75 0.74 50.8 0 1 91.72 49.08
  C 87.44 44.65 86.24 44.61 81.64 48.77
  A 0.95 0.95 0.0 0 1 80.35 48.76
  C 76.05 44.75 74.65 44.67 70.51 48.85
  A 1.38 1.37 46.0 0 1 68.52 48.81
  Z
  M 81.45 29.25
  C 87.74 29.22 93.36 33.28 96.19 38.80
  A 0.96 0.95 66.8 0 0 97.35 39.27
  L 97.73 39.14
  Q 99.26 38.60 98.49 37.18
  Q 93.00 27.08 81.43 26.38
  A 0.41 0.40 -88.0 0 0 81.00 26.79
  L 81.00 28.80
  Q 81.00 29.25 81.45 29.25
  Z"
/>
<path fill="#57a4ff" d="
  M 96.19 38.80
  C 93.36 33.28 87.74 29.22 81.45 29.25
  Q 81.00 29.25 81.00 28.80
  L 81.00 26.79
  A 0.41 0.40 -88.0 0 1 81.43 26.38
  Q 93.00 27.08 98.49 37.18
  Q 99.26 38.60 97.73 39.14
  L 97.35 39.27
  A 0.96 0.95 66.8 0 1 96.19 38.80
  Z"
/>
<rect fill="#bedbff" x="42.00" y="80.60" width="78.00" height="2.88" rx="1.42"/>
<path fill="#57a4ff" d="
  M 16.95 105.25
  L 17.26 98.27
  Q 17.35 96.25 19.37 96.27
  L 19.85 96.27
  A 1.49 1.49 0.0 0 1 21.33 97.77
  L 21.23 117.13
  Q 21.22 119.24 19.11 119.24
  L 18.64 119.25
  A 1.61 1.61 0.0 0 1 17.03 117.65
  L 16.99 109.23
  A 0.26 0.26 0.0 0 0 16.73 108.97
  L 9.21 109.09
  Q 8.77 109.09 8.77 109.54
  L 8.72 117.41
  A 1.76 1.75 85.5 0 1 7.25 119.13
  L 6.76 119.21
  A 1.96 1.95 85.7 0 1 4.49 117.25
  L 4.76 98.17
  A 1.88 1.88 0.0 0 1 6.38 96.33
  L 7.02 96.24
  A 1.55 1.55 0.0 0 1 8.79 97.77
  L 8.84 105.02
  Q 8.84 105.20 9.02 105.20
  L 16.75 105.44
  Q 16.94 105.44 16.95 105.25
  Z"
/>
<path fill="#57a4ff" d="
  M 90.13 111.25
  Q 88.97 111.27 87.97 110.84
  Q 87.48 110.63 87.24 110.15
  Q 86.68 109.06 87.38 108.35
  C 88.44 107.26 92.24 107.56 93.57 107.80
  A 1.34 1.34 0.0 0 1 94.65 108.89
  C 95.35 112.91 94.87 118.06 89.79 119.14
  Q 83.62 120.44 80.47 116.55
  C 76.95 112.22 76.89 102.63 81.18 98.51
  C 85.73 94.13 96.58 96.56 94.36 104.34
  Q 94.23 104.78 93.81 104.93
  C 91.33 105.83 90.88 103.10 90.06 101.60
  Q 89.80 101.15 89.32 100.95
  C 86.26 99.67 83.91 101.35 82.86 104.25
  C 81.39 108.35 81.68 115.43 88.10 115.25
  A 2.19 2.18 13.5 0 0 89.94 114.13
  L 90.86 112.49
  A 0.83 0.83 0.0 0 0 90.13 111.25
  Z"
/>
<path fill="#57a4ff" d="
  M 153.69 104.78
  L 153.66 97.96
  A 1.43 1.43 0.0 0 1 155.29 96.54
  L 155.77 96.61
  Q 157.50 96.86 157.50 98.61
  L 157.49 117.08
  Q 157.49 118.64 155.99 119.03
  C 151.27 120.27 145.30 118.57 144.95 112.76
  C 144.61 107.12 148.40 105.69 153.04 105.47
  Q 153.70 105.44 153.69 104.78
  Z
  M 153.65 114.67
  L 153.67 109.85
  A 0.77 0.77 0.0 0 0 152.91 109.08
  L 151.59 109.07
  A 2.96 2.87 -89.7 0 0 148.70 112.02
  L 148.70 112.46
  A 2.96 2.87 -89.7 0 0 151.55 115.43
  L 152.87 115.44
  A 0.77 0.77 0.0 0 0 153.65 114.67
  Z"
/>
<path fill="#57a4ff" d="
  M 136.44 104.92
  C 138.70 103.30 142.32 103.29 144.14 105.66
  C 144.99 106.75 144.56 108.05 143.20 108.22
  Q 142.72 108.28 141.84 107.92
  Q 138.69 106.64 136.39 109.17
  Q 136.03 109.57 136.02 110.12
  L 135.96 117.14
  A 2.18 2.17 -2.0 0 1 133.96 119.28
  L 133.39 119.32
  A 1.48 1.47 -3.6 0 1 131.80 117.92
  Q 131.52 110.83 131.63 105.50
  Q 131.66 104.10 132.15 103.57
  A 2.24 1.77 -36.0 0 1 135.60 103.71
  L 135.95 104.76
  Q 136.09 105.17 136.44 104.92
  Z"
/>
<path fill="#57a4ff" d="
  M 31.3131 119.3761
  A 7.86 7.58 91.8 0 1 23.9837 111.2819
  A 7.86 7.58 91.8 0 1 31.8069 103.6639
  A 7.86 7.58 91.8 0 1 39.1363 111.7581
  A 7.86 7.58 91.8 0 1 31.3131 119.3761
  Z
  M 35.09 111.55
  A 3.64 3.64 0.0 0 0 31.45 107.91
  A 3.64 3.64 0.0 0 0 27.81 111.55
  A 3.64 3.64 0.0 0 0 31.45 115.19
  A 3.64 3.64 0.0 0 0 35.09 111.55
  Z"
/>
<path fill="#57a4ff" d="
  M 45.79 105.63
  Q 48.22 103.43 50.97 105.35
  Q 51.37 105.63 51.79 105.41
  C 60.22 101.09 59.31 113.00 58.91 117.44
  Q 58.77 119.06 57.15 118.97
  L 56.69 118.94
  A 1.26 1.26 0.0 0 1 55.49 117.69
  L 55.39 109.85
  A 1.42 1.41 -2.6 0 0 53.85 108.45
  L 53.48 108.48
  A 1.06 1.06 0.0 0 0 52.52 109.52
  L 52.48 117.51
  A 1.41 1.41 0.0 0 1 50.92 118.90
  L 50.49 118.86
  A 1.37 1.36 -87.4 0 1 49.26 117.51
  L 49.16 109.84
  A 1.35 1.35 0.0 0 0 47.34 108.59
  L 46.96 108.73
  A 1.70 1.69 80.4 0 0 45.86 110.29
  L 45.77 117.15
  A 1.71 1.71 0.0 0 1 43.97 118.84
  L 43.44 118.81
  A 1.68 1.67 1.1 0 1 41.85 117.16
  L 41.72 105.22
  A 1.57 1.56 0.5 0 1 43.34 103.64
  Q 45.13 103.69 45.24 105.40
  Q 45.28 106.09 45.79 105.63
  Z"
/>
<path fill="#57a4ff" d="
  M 103.99 115.26
  L 104.66 115.23
  A 1.88 1.88 0.0 0 0 106.46 113.35
  L 106.47 105.72
  Q 106.47 104.35 107.77 103.91
  C 109.06 103.47 110.01 103.82 110.25 105.24
  Q 111.42 112.05 109.93 116.17
  C 108.82 119.22 104.86 119.71 102.07 119.21
  C 96.51 118.20 97.27 110.02 97.65 105.21
  Q 97.79 103.46 99.54 103.63
  L 99.82 103.66
  A 1.47 1.46 -88.7 0 1 101.14 105.05
  L 101.51 112.99
  A 2.38 2.38 0.0 0 0 103.99 115.26
  Z"
/>
<path fill="#57a4ff" d="
  M 66.01 112.95
  Q 64.97 113.03 65.51 113.93
  L 65.70 114.23
  Q 66.25 115.13 67.30 115.25
  Q 70.49 115.62 73.48 114.48
  A 1.06 1.06 0.0 0 1 74.80 114.99
  C 76.73 118.79 64.05 121.78 61.93 114.11
  C 60.96 110.60 62.18 105.72 66.16 104.47
  C 74.39 101.87 78.68 112.80 72.38 112.74
  Q 68.95 112.71 66.01 112.95
  Z
  M 65.95 109.88
  L 71.75 109.90
  A 0.18 0.18 0.0 0 0 71.93 109.72
  L 71.93 109.63
  A 2.92 2.35 0.2 0 0 69.01 107.27
  L 68.69 107.27
  A 2.92 2.35 0.2 0 0 65.77 109.61
  L 65.77 109.70
  A 0.18 0.18 0.0 0 0 65.95 109.88
  Z"
/>
<path fill="#57a4ff" d="
  M 124.48 117.08
  Q 122.30 119.22 118.99 118.71
  Q 112.11 117.64 113.46 110.49
  C 114.39 105.50 120.55 102.69 124.43 106.14
  C 126.64 108.11 127.43 113.05 128.88 116.13
  Q 129.11 116.62 128.98 117.15
  Q 128.67 118.50 127.29 118.65
  Q 126.83 118.70 126.50 118.38
  L 125.19 117.08
  Q 124.83 116.73 124.48 117.08
  Z
  M 119.2746 115.2686
  A 3.53 3.26 100.7 0 0 123.1333 112.4053
  A 3.53 3.26 100.7 0 0 120.5854 108.3314
  A 3.53 3.26 100.7 0 0 116.7267 111.1947
  A 3.53 3.26 100.7 0 0 119.2746 115.2686
  Z"
/>
</svg>
