<?xml version="1.0" encoding="UTF-8" standalone="no"?>
<!DOCTYPE svg PUBLIC "-//W3C//DTD SVG 1.1//EN" "http://www.w3.org/Graphics/SVG/1.1/DTD/svg11.dtd">
<svg xmlns="http://www.w3.org/2000/svg" version="1.1" viewBox="0.00 0.00 512.00 512.00">
<g stroke-width="2.00" fill="none" stroke-linecap="butt">
<path stroke="#8ac0ff" vector-effect="non-scaling-stroke" d="
  M 463.9303 39.8897
  A 7.81 7.81 0.0 0 0 456.1339 32.0661
  L 391.8940 31.9540
  A 7.81 7.81 0.0 0 0 384.0704 39.7503
  L 384.0697 40.1103
  A 7.81 7.81 0.0 0 0 391.8661 47.9339
  L 456.1060 48.0460
  A 7.81 7.81 0.0 0 0 463.9296 40.2497
  L 463.9303 39.8897"
/>
<path stroke="#8ac0ff" vector-effect="non-scaling-stroke" d="
  M 251.98 35.73
  C 178.88 79.53 105.84 123.43 32.75 167.25
  C 25.05 171.86 30.85 185.80 38.77 185.32
  Q 41.16 185.18 45.65 182.48
  Q 140.73 125.26 235.78 68.00
  Q 246.99 61.25 251.32 60.34
  Q 260.36 58.43 269.39 63.86
  Q 368.44 123.49 467.48 183.15
  C 472.55 186.20 477.12 186.45 480.54 180.97
  C 484.90 173.97 483.52 169.80 476.68 165.70
  Q 368.52 100.77 260.24 36.03
  Q 255.86 33.41 251.98 35.73"
/>
<path stroke="#8ac0ff" vector-effect="non-scaling-stroke" d="
  M 479.97 471.95
  A 7.95 7.95 0.0 0 0 472.02 464.00
  L 39.98 464.00
  A 7.95 7.95 0.0 0 0 32.03 471.95
  L 32.03 472.05
  A 7.95 7.95 0.0 0 0 39.98 480.00
  L 472.02 480.00
  A 7.95 7.95 0.0 0 0 479.97 472.05
  L 479.97 471.95"
/>
<path stroke="#8ac0ff" vector-effect="non-scaling-stroke" d="
  M 311.95 148.83
  C 227.27 107.70 128.48 169.39 128.09 263.48
  Q 128.08 263.97 128.57 263.97
  Q 139.16 264.06 149.75 263.99
  C 164.33 263.89 174.08 272.53 185.15 280.84
  C 190.43 284.80 194.09 282.59 198.34 278.32
  Q 205.20 271.40 207.24 269.47
  C 215.99 261.17 230.62 260.61 239.72 268.53
  Q 242.30 270.77 248.82 277.46
  C 254.56 283.35 258.65 282.12 264.15 276.49
  Q 270.63 269.84 273.06 267.81
  C 281.44 260.76 296.09 260.97 304.03 268.75
  Q 309.51 274.12 314.93 279.57
  C 319.31 283.98 322.97 283.73 327.97 280.00
  Q 334.14 275.40 340.33 270.82
  C 352.36 261.95 369.02 264.11 383.46 263.94
  Q 383.92 263.93 383.91 263.47
  C 383.57 214.31 355.68 170.07 311.95 148.83"
/>
<path stroke="#8ac0ff" vector-effect="non-scaling-stroke" d="
  M 358.91 221.14
  Q 359.37 220.95 359.18 220.48
  C 341.66 179.14 301.71 152.38 256.49 152.04
  Q 256.00 152.04 256.00 152.53
  L 256.00 167.72
  A 0.30 0.30 0.0 0 0 256.30 168.02
  C 295.08 168.44 329.10 190.81 344.37 226.72
  A 0.50 0.49 -22.7 0 0 345.02 226.98
  L 358.91 221.14"
/>
</g>
<path fill="#57a4ff" d="
  M 464.45 447.93
  Q 468.23 448.08 472.00 448.18
  Q 486.55 448.58 493.21 460.78
  C 500.17 473.53 493.55 489.95 479.97 494.50
  Q 475.49 496.01 464.86 496.01
  Q 252.93 495.99 41.00 496.00
  C 10.73 496.00 6.85 453.63 36.33 448.34
  C 39.59 447.75 43.83 448.06 47.52 447.98
  Q 48.00 447.97 48.00 447.49
  L 48.00 199.53
  A 0.24 0.24 0.0 0 0 47.66 199.31
  Q 38.88 203.05 30.02 199.68
  C 22.22 196.72 18.22 191.07 15.02 183.71
  C 11.44 175.46 12.76 165.85 18.27 159.15
  Q 21.24 155.52 31.49 149.38
  Q 137.59 85.81 243.63 22.13
  Q 251.78 17.23 260.44 19.07
  Q 264.82 20.00 274.98 26.10
  Q 329.24 58.65 383.56 91.24
  A 0.28 0.27 -75.0 0 0 383.97 91.00
  L 383.97 62.97
  A 0.78 0.78 0.0 0 0 383.47 62.24
  C 367.04 55.83 362.89 35.33 375.30 22.78
  C 381.20 16.82 388.00 16.00 397.02 16.00
  Q 423.40 16.02 449.78 15.98
  Q 459.22 15.96 463.55 17.40
  C 484.76 24.44 485.13 54.10 464.45 62.33
  Q 464.00 62.51 464.00 63.00
  L 464.00 139.23
  A 0.39 0.37 -75.0 0 0 464.18 139.56
  Q 475.64 146.40 487.11 153.41
  C 499.20 160.79 502.24 175.41 495.34 187.53
  Q 484.98 205.73 464.47 199.66
  Q 464.00 199.52 464.00 200.01
  L 464.00 447.47
  Q 464.00 447.92 464.45 447.93
  Z
  M 463.9303 39.8897
  A 7.81 7.81 0.0 0 0 456.1339 32.0661
  L 391.8940 31.9540
  A 7.81 7.81 0.0 0 0 384.0704 39.7503
  L 384.0697 40.1103
  A 7.81 7.81 0.0 0 0 391.8661 47.9339
  L 456.1060 48.0460
  A 7.81 7.81 0.0 0 0 463.9296 40.2497
  L 463.9303 39.8897
  Z
  M 251.98 35.73
  C 178.88 79.53 105.84 123.43 32.75 167.25
  C 25.05 171.86 30.85 185.80 38.77 185.32
  Q 41.16 185.18 45.65 182.48
  Q 140.73 125.26 235.78 68.00
  Q 246.99 61.25 251.32 60.34
  Q 260.36 58.43 269.39 63.86
  Q 368.44 123.49 467.48 183.15
  C 472.55 186.20 477.12 186.45 480.54 180.97
  C 484.90 173.97 483.52 169.80 476.68 165.70
  Q 368.52 100.77 260.24 36.03
  Q 255.86 33.41 251.98 35.73
  Z
  M 447.53 129.54
  A 0.31 0.31 0.0 0 0 448.00 129.27
  L 448.00 64.31
  A 0.31 0.31 0.0 0 0 447.69 64.00
  L 400.21 64.00
  A 0.31 0.31 0.0 0 0 399.90 64.31
  L 399.90 100.88
  A 0.31 0.31 0.0 0 0 400.05 101.15
  L 447.53 129.54
  Z
  M 259.66 76.89
  C 257.64 75.68 254.42 75.41 252.52 76.55
  Q 158.31 133.28 64.18 189.95
  A 0.38 0.37 -15.8 0 0 64.00 190.27
  L 64.00 447.50
  Q 64.00 448.00 64.50 448.00
  L 447.50 448.00
  Q 448.00 448.00 448.00 447.50
  L 448.00 190.51
  Q 448.00 190.01 447.57 189.76
  Q 353.65 133.19 259.66 76.89
  Z
  M 479.97 471.95
  A 7.95 7.95 0.0 0 0 472.02 464.00
  L 39.98 464.00
  A 7.95 7.95 0.0 0 0 32.03 471.95
  L 32.03 472.05
  A 7.95 7.95 0.0 0 0 39.98 480.00
  L 472.02 480.00
  A 7.95 7.95 0.0 0 0 479.97 472.05
  L 479.97 471.95
  Z"
/>
<rect fill="#bddbff" x="-39.93" y="-7.99" transform="translate(424.00,40.00) rotate(0.1)" width="79.86" height="15.98" rx="7.81"/>
<path fill="#bddbff" d="
  M 32.75 167.25
  C 105.84 123.43 178.88 79.53 251.98 35.73
  Q 255.86 33.41 260.24 36.03
  Q 368.52 100.77 476.68 165.70
  C 483.52 169.80 484.90 173.97 480.54 180.97
  C 477.12 186.45 472.55 186.20 467.48 183.15
  Q 368.44 123.49 269.39 63.86
  Q 260.36 58.43 251.32 60.34
  Q 246.99 61.25 235.78 68.00
  Q 140.73 125.26 45.65 182.48
  Q 41.16 185.18 38.77 185.32
  C 30.85 185.80 25.05 171.86 32.75 167.25
  Z"
/>
<path fill="#57a4ff" d="
  M 248.00 119.99
  L 248.00 104.50
  Q 248.00 104.00 248.50 104.00
  L 263.50 104.00
  Q 264.00 104.00 264.00 104.50
  L 264.00 119.74
  Q 264.00 120.31 264.57 120.35
  C 307.52 123.70 346.10 143.78 371.50 178.31
  Q 400.87 218.25 399.96 270.50
  C 399.82 278.48 395.89 280.01 388.48 280.00
  Q 374.99 279.99 361.50 280.01
  C 348.27 280.02 340.60 293.93 328.62 297.66
  C 312.55 302.66 304.15 291.43 293.87 281.14
  C 289.12 276.39 284.33 278.93 280.16 283.16
  C 274.53 288.89 271.01 293.15 264.49 295.53
  Q 264.00 295.71 264.00 296.23
  Q 263.99 346.46 264.00 396.68
  Q 264.01 403.37 265.40 406.60
  C 271.17 419.87 291.24 418.78 295.34 404.58
  C 296.34 401.15 296.00 396.49 296.01 392.51
  Q 296.01 392.00 296.51 392.00
  L 311.44 392.00
  Q 311.80 392.00 311.83 392.36
  Q 312.52 402.17 311.31 406.76
  Q 306.11 426.55 287.01 431.24
  C 271.02 435.16 254.11 424.93 249.49 409.36
  Q 247.98 404.28 247.99 390.99
  Q 248.02 343.60 247.99 296.22
  Q 247.99 295.70 247.50 295.52
  C 240.86 293.13 236.81 288.09 232.11 283.40
  C 226.26 277.54 222.35 276.83 216.49 282.80
  C 206.62 292.85 198.07 302.74 182.73 297.45
  C 172.88 294.05 165.99 283.56 155.69 280.80
  Q 152.84 280.04 147.74 280.03
  Q 135.37 279.98 123.01 279.99
  C 117.40 280.00 112.45 278.72 112.08 272.50
  Q 111.16 257.08 114.05 240.04
  C 125.27 173.76 180.70 124.76 247.50 120.53
  Q 248.00 120.49 248.00 119.99
  Z
  M 311.95 148.83
  C 227.27 107.70 128.48 169.39 128.09 263.48
  Q 128.08 263.97 128.57 263.97
  Q 139.16 264.06 149.75 263.99
  C 164.33 263.89 174.08 272.53 185.15 280.84
  C 190.43 284.80 194.09 282.59 198.34 278.32
  Q 205.20 271.40 207.24 269.47
  C 215.99 261.17 230.62 260.61 239.72 268.53
  Q 242.30 270.77 248.82 277.46
  C 254.56 283.35 258.65 282.12 264.15 276.49
  Q 270.63 269.84 273.06 267.81
  C 281.44 260.76 296.09 260.97 304.03 268.75
  Q 309.51 274.12 314.93 279.57
  C 319.31 283.98 322.97 283.73 327.97 280.00
  Q 334.14 275.40 340.33 270.82
  C 352.36 261.95 369.02 264.11 383.46 263.94
  Q 383.92 263.93 383.91 263.47
  C 383.57 214.31 355.68 170.07 311.95 148.83
  Z"
/>
<path fill="#bddbff" d="
  M 128.09 263.48
  C 128.48 169.39 227.27 107.70 311.95 148.83
  C 355.68 170.07 383.57 214.31 383.91 263.47
  Q 383.92 263.93 383.46 263.94
  C 369.02 264.11 352.36 261.95 340.33 270.82
  Q 334.14 275.40 327.97 280.00
  C 322.97 283.73 319.31 283.98 314.93 279.57
  Q 309.51 274.12 304.03 268.75
  C 296.09 260.97 281.44 260.76 273.06 267.81
  Q 270.63 269.84 264.15 276.49
  C 258.65 282.12 254.56 283.35 248.82 277.46
  Q 242.30 270.77 239.72 268.53
  C 230.62 260.61 215.99 261.17 207.24 269.47
  Q 205.20 271.40 198.34 278.32
  C 194.09 282.59 190.43 284.80 185.15 280.84
  C 174.08 272.53 164.33 263.89 149.75 263.99
  Q 139.16 264.06 128.57 263.97
  Q 128.08 263.97 128.09 263.48
  Z
  M 358.91 221.14
  Q 359.37 220.95 359.18 220.48
  C 341.66 179.14 301.71 152.38 256.49 152.04
  Q 256.00 152.04 256.00 152.53
  L 256.00 167.72
  A 0.30 0.30 0.0 0 0 256.30 168.02
  C 295.08 168.44 329.10 190.81 344.37 226.72
  A 0.50 0.49 -22.7 0 0 345.02 226.98
  L 358.91 221.14
  Z"
/>
<path fill="#57a4ff" d="
  M 358.91 221.14
  L 345.02 226.98
  A 0.50 0.49 -22.7 0 1 344.37 226.72
  C 329.10 190.81 295.08 168.44 256.30 168.02
  A 0.30 0.30 0.0 0 1 256.00 167.72
  L 256.00 152.53
  Q 256.00 152.04 256.49 152.04
  C 301.71 152.38 341.66 179.14 359.18 220.48
  Q 359.37 220.95 358.91 221.14
  Z"
/>
<rect fill="#bddbff" x="32.03" y="464.00" width="447.94" height="16.00" rx="7.95"/>
</svg>
