<?xml version="1.0" encoding="UTF-8" standalone="no"?>
<!DOCTYPE svg PUBLIC "-//W3C//DTD SVG 1.1//EN" "http://www.w3.org/Graphics/SVG/1.1/DTD/svg11.dtd">
<svg xmlns="http://www.w3.org/2000/svg" version="1.1" viewBox="0.00 0.00 360.00 640.00">
<g stroke-width="2.00" fill="none" stroke-linecap="butt">
<path stroke="#abd2ff" vector-effect="non-scaling-stroke" d="
  M 216.52 265.93
  Q 220.74 266.43 221.98 262.72
  C 223.29 258.80 219.51 257.13 216.59 255.52
  Q 216.13 255.27 216.13 254.75
  L 216.12 242.48
  Q 216.12 241.92 216.59 241.64
  C 219.08 240.17 219.81 237.20 217.79 235.12
  Q 216.59 233.89 213.83 233.80
  C 210.77 233.71 203.35 233.00 200.90 234.74
  C 198.92 236.15 199.03 240.24 201.47 241.46
  Q 202.25 241.85 202.25 242.72
  L 202.25 246.02
  Q 202.25 246.90 201.49 246.45
  L 182.03 234.77
  A 3.95 3.92 45.0 0 0 177.98 234.76
  Q 159.28 245.97 140.55 257.22
  C 135.46 260.28 137.87 266.58 143.45 265.88
  Q 143.87 265.83 143.87 266.25
  L 143.87 308.40
  A 0.46 0.45 1.8 0 1 143.38 308.85
  C 137.00 308.34 135.86 317.23 144.01 317.24
  Q 180.88 317.33 217.75 317.24
  C 223.02 317.23 223.35 308.38 216.60 308.85
  A 0.41 0.41 0.0 0 1 216.16 308.44
  L 216.13 266.27
  Q 216.13 265.88 216.52 265.93"
/>
<path stroke="#abd2ff" vector-effect="non-scaling-stroke" d="
  M 109.03 336.21
  Q 107.89 336.17 107.89 335.03
  L 107.84 328.64
  A 1.41 1.41 0.0 0 0 106.38 327.24
  L 105.82 327.26
  Q 103.72 327.32 103.70 329.42
  L 103.48 348.56
  A 1.67 1.66 1.0 0 0 105.11 350.24
  L 105.83 350.26
  A 1.86 1.85 0.8 0 0 107.73 348.42
  L 107.77 340.45
  A 0.28 0.28 0.0 0 1 108.05 340.17
  L 115.72 339.95
  Q 116.00 339.94 116.00 340.22
  L 116.00 348.60
  A 1.66 1.66 0.0 0 0 117.66 350.26
  L 118.09 350.26
  Q 120.20 350.26 120.22 348.16
  L 120.40 328.95
  A 1.69 1.68 89.8 0 0 118.70 327.25
  L 118.14 327.26
  Q 116.32 327.28 116.24 329.10
  L 115.96 335.25
  Q 115.91 336.41 114.75 336.37
  L 109.03 336.21"
/>
<path stroke="#abd2ff" vector-effect="non-scaling-stroke" d="
  M 189.74 342.66
  Q 189.89 345.07 187.87 345.86
  C 178.36 349.61 179.48 327.46 188.51 332.09
  A 1.55 1.51 -89.2 0 1 189.19 332.81
  L 190.26 335.24
  Q 190.50 335.76 191.03 335.96
  Q 191.97 336.32 192.84 335.97
  Q 193.31 335.78 193.43 335.29
  C 195.35 327.46 184.82 325.14 180.23 329.43
  C 173.61 335.60 176.24 352.99 188.75 350.22
  C 193.83 349.10 194.14 344.46 193.78 340.23
  A 1.58 1.57 -88.2 0 0 192.44 338.79
  Q 189.75 338.39 188.49 338.61
  Q 183.29 339.49 187.71 342.37
  Q 187.81 342.44 189.16 342.21
  A 0.50 0.49 -6.9 0 1 189.74 342.66"
/>
<path stroke="#abd2ff" vector-effect="non-scaling-stroke" d="
  M 252.06 336.46
  C 247.17 337.01 243.70 337.83 243.89 343.75
  C 244.10 350.05 249.62 350.21 254.31 350.27
  Q 256.36 350.30 256.39 348.00
  Q 256.54 338.86 256.49 329.57
  Q 256.47 327.74 254.65 327.58
  L 254.25 327.54
  A 1.47 1.47 0.0 0 0 252.65 329.00
  L 252.61 335.84
  Q 252.61 336.40 252.06 336.46"
/>
<path stroke="#abd2ff" vector-effect="non-scaling-stroke" d="
  M 234.92 335.59
  C 234.12 332.70 230.74 333.43 230.70 336.50
  Q 230.60 345.17 230.80 348.92
  A 1.54 1.54 0.0 0 0 232.28 350.38
  L 232.85 350.40
  A 2.06 2.06 0.0 0 0 234.98 348.35
  L 235.01 341.14
  A 1.33 1.32 66.5 0 1 235.36 340.24
  Q 238.02 337.34 241.58 339.25
  A 1.18 1.17 -58.7 0 0 243.11 338.87
  L 243.26 338.66
  Q 244.16 337.34 242.93 336.32
  Q 239.40 333.38 235.54 335.83
  Q 235.07 336.12 234.92 335.59"
/>
<path stroke="#abd2ff" vector-effect="non-scaling-stroke" d="
  M 144.21 336.53
  L 144.02 335.71
  Q 143.91 335.21 143.48 334.92
  Q 142.79 334.44 141.92 334.63
  A 1.52 1.52 0.0 0 0 140.73 336.13
  L 140.82 347.92
  Q 140.83 349.73 142.64 349.84
  L 143.14 349.87
  A 1.50 1.50 0.0 0 0 144.73 348.41
  L 144.91 341.23
  A 1.65 1.64 -87.5 0 1 146.65 339.63
  L 146.93 339.65
  A 1.27 1.26 1.7 0 1 148.13 340.91
  L 148.19 348.03
  Q 148.20 349.69 149.85 349.86
  L 150.19 349.89
  A 1.18 1.17 -86.7 0 0 151.49 348.73
  L 151.54 340.49
  A 1.04 1.04 0.0 0 1 152.52 339.46
  L 152.85 339.44
  A 1.42 1.42 0.0 0 1 154.36 340.85
  L 154.42 348.67
  A 1.30 1.29 -89.3 0 0 155.67 349.96
  L 156.15 349.98
  Q 157.81 350.04 157.95 348.38
  C 158.31 344.04 159.29 332.02 150.78 336.43
  A 0.70 0.70 0.0 0 1 150.05 336.38
  Q 147.21 334.33 144.71 336.69
  Q 144.32 337.05 144.21 336.53"
/>
<path stroke="#abd2ff" vector-effect="non-scaling-stroke" d="
  M 203.12 346.25
  A 2.49 2.48 87.3 0 1 200.53 343.88
  L 200.14 335.74
  A 1.22 1.22 0.0 0 0 198.74 334.59
  L 198.24 334.67
  A 1.96 1.95 -3.4 0 0 196.57 336.54
  C 196.36 342.94 195.19 352.43 205.46 349.88
  C 210.94 348.52 209.74 340.34 209.38 336.16
  A 1.56 1.56 0.0 0 0 207.75 334.74
  L 207.19 334.76
  A 1.81 1.80 -1.3 0 0 205.46 336.56
  L 205.45 344.35
  A 1.88 1.87 89.0 0 1 203.65 346.22
  L 203.12 346.25"
/>
<path stroke="#abd2ff" vector-effect="non-scaling-stroke" d="
  M 130.3125 350.3961
  A 7.88 7.61 91.8 0 0 138.1662 342.7590
  A 7.88 7.61 91.8 0 0 130.8075 334.6439
  A 7.88 7.61 91.8 0 0 122.9538 342.2810
  A 7.88 7.61 91.8 0 0 130.3125 350.3961"
/>
<path stroke="#abd2ff" vector-effect="non-scaling-stroke" d="
  M 165.01 343.86
  L 171.95 343.84
  A 2.51 2.51 0.0 0 0 174.38 340.69
  L 174.15 339.81
  Q 173.14 335.91 169.17 335.19
  C 157.55 333.09 156.58 354.40 172.58 348.93
  A 2.09 2.08 77.0 0 0 173.97 346.70
  L 173.91 346.23
  A 0.94 0.93 -13.3 0 0 172.67 345.47
  C 170.60 346.20 164.89 347.33 164.43 344.55
  Q 164.31 343.86 165.01 343.86"
/>
<path stroke="#abd2ff" vector-effect="non-scaling-stroke" d="
  M 224.12 348.04
  C 224.77 348.57 225.18 349.34 225.90 349.59
  Q 227.17 350.04 227.89 348.52
  A 1.79 1.78 44.1 0 0 227.86 346.93
  C 226.31 343.90 225.76 339.19 223.51 337.25
  C 219.20 333.53 212.56 336.83 212.21 342.27
  Q 211.67 350.77 220.54 349.70
  Q 222.25 349.49 223.35 348.12
  Q 223.69 347.70 224.12 348.04"
/>
<path stroke="#808080" vector-effect="non-scaling-stroke" d="
  M 177.31 624.41
  A 0.40 0.40 0.0 0 0 178.04 624.57
  Q 178.57 623.79 177.89 623.19
  A 0.43 0.43 0.0 0 0 177.18 623.58
  L 177.31 624.41"
/>
<path stroke="#808080" vector-effect="non-scaling-stroke" d="
  M 195.15 625.27
  L 195.22 630.44
  Q 195.23 630.87 195.66 630.92
  L 196.04 630.97
  A 0.49 0.49 0.0 0 0 196.58 630.49
  L 196.63 623.66
  Q 196.63 622.90 195.88 623.01
  Q 194.70 623.19 193.67 623.86
  Q 193.01 624.29 193.73 624.63
  Q 194.15 624.83 194.65 624.80
  Q 195.15 624.77 195.15 625.27"
/>
<path stroke="#808080" vector-effect="non-scaling-stroke" d="
  M 203.3438 630.9600
  A 3.95 2.97 89.8 0 0 206.3000 626.9996
  A 3.95 2.97 89.8 0 0 203.3162 623.0600
  A 3.95 2.97 89.8 0 0 200.3600 627.0204
  A 3.95 2.97 89.8 0 0 203.3438 630.9600"
/>
<path stroke="#808080" vector-effect="non-scaling-stroke" d="
  M 157.76 627.99
  L 156.38 623.90
  A 0.93 0.93 0.0 0 0 155.36 623.28
  L 154.96 623.34
  A 0.46 0.45 75.2 0 0 154.61 623.95
  L 156.99 630.46
  A 1.20 1.20 0.0 0 0 159.25 630.43
  L 161.32 624.32
  A 0.72 0.71 19.2 0 0 160.88 623.42
  L 160.51 623.28
  A 0.48 0.48 0.0 0 0 159.89 623.58
  L 158.38 627.99
  Q 158.07 628.90 157.76 627.99"
/>
<path stroke="#808080" vector-effect="non-scaling-stroke" d="
  M 169.50 627.10
  L 170.79 627.17
  A 0.53 0.53 0.0 0 0 171.30 626.42
  Q 171.16 626.10 170.82 625.92
  C 170.25 625.61 168.36 625.85 167.45 625.67
  Q 166.98 625.58 166.98 626.06
  L 166.99 630.49
  Q 166.99 631.07 167.57 631.00
  L 167.82 630.97
  Q 168.44 630.89 168.51 630.26
  L 168.75 627.75
  A 0.72 0.72 0.0 0 1 169.50 627.10"
/>
<path stroke="#808080" vector-effect="non-scaling-stroke" d="
  M 165.60 630.29
  L 165.99 627.06
  A 0.90 0.90 0.0 0 0 165.21 626.05
  L 163.99 625.90
  A 2.27 2.21 -83.0 0 0 161.52 627.89
  L 161.45 628.40
  A 2.27 2.21 -83.0 0 0 163.37 630.93
  L 164.59 631.08
  A 0.90 0.90 0.0 0 0 165.60 630.29"
/>
<path stroke="#808080" vector-effect="non-scaling-stroke" d="
  M 174.36 629.87
  Q 173.39 629.94 172.67 629.24
  Q 172.45 629.02 172.27 629.27
  L 172.10 629.50
  A 0.68 0.68 0.0 0 0 172.26 630.46
  Q 173.63 631.42 175.16 630.84
  A 1.40 1.40 0.0 0 0 175.08 628.19
  L 174.10 627.89
  Q 172.72 627.45 174.03 626.81
  Q 174.47 626.59 175.36 627.16
  Q 175.66 627.34 175.76 627.01
  L 175.83 626.76
  A 0.39 0.39 0.0 0 0 175.69 626.32
  Q 174.01 625.06 172.38 626.33
  A 1.09 1.09 0.0 0 0 172.51 628.14
  L 174.50 629.28
  A 0.32 0.32 0.0 0 1 174.36 629.87"
/>
<path stroke="#808080" vector-effect="non-scaling-stroke" d="
  M 178.3868 626.4025
  A 0.66 0.66 0.0 0 0 177.7291 625.7402
  L 177.6491 625.7399
  A 0.66 0.66 0.0 0 0 176.9868 626.3976
  L 176.9732 630.2775
  A 0.66 0.66 0.0 0 0 177.6309 630.9398
  L 177.7109 630.9401
  A 0.66 0.66 0.0 0 0 178.3732 630.2824
  L 178.3868 626.4025"
/>
<path stroke="#808080" vector-effect="non-scaling-stroke" d="
  M 184.57 628.42
  A 2.68 2.68 0.0 0 0 181.89 625.74
  A 2.68 2.68 0.0 0 0 179.21 628.42
  A 2.68 2.68 0.0 0 0 181.89 631.10
  A 2.68 2.68 0.0 0 0 184.57 628.42"
/>
<path stroke="#808080" vector-effect="non-scaling-stroke" d="
  M 187.87 627.32
  Q 188.56 627.38 188.59 628.06
  L 188.69 630.38
  A 0.57 0.57 0.0 0 0 189.19 630.92
  L 189.48 630.96
  Q 189.85 631.01 189.89 630.64
  Q 190.15 628.50 189.46 626.49
  A 0.72 0.72 0.0 0 0 188.81 626.01
  L 185.87 625.86
  A 0.52 0.52 0.0 0 0 185.33 626.39
  L 185.45 630.48
  Q 185.46 630.88 185.87 630.89
  L 186.35 630.89
  A 0.38 0.38 0.0 0 0 186.73 630.52
  L 186.75 628.00
  Q 186.75 627.23 187.53 627.29
  L 187.87 627.32"
/>
<path stroke="#808080" vector-effect="non-scaling-stroke" d="
  M 199.50 631.05
  A 0.65 0.65 0.0 0 0 198.85 630.40
  A 0.65 0.65 0.0 0 0 198.20 631.05
  A 0.65 0.65 0.0 0 0 198.85 631.70
  A 0.65 0.65 0.0 0 0 199.50 631.05"
/>
<path stroke="#8ac0ff" vector-effect="non-scaling-stroke" d="
  M 216.1201 237.9642
  A 1.36 1.36 0.0 0 0 214.7649 236.5995
  L 203.6049 236.5605
  A 1.36 1.36 0.0 0 0 202.2402 237.9158
  L 202.2399 237.9958
  A 1.36 1.36 0.0 0 0 203.5951 239.3605
  L 214.7551 239.3995
  A 1.36 1.36 0.0 0 0 216.1198 238.0442
  L 216.1201 237.9642"
/>
<path stroke="#8ac0ff" vector-effect="non-scaling-stroke" d="
  M 179.08 237.34
  L 141.37 259.97
  Q 139.89 260.86 140.88 262.27
  L 141.18 262.69
  A 1.27 1.26 -32.7 0 0 142.87 263.05
  L 177.97 241.92
  A 3.93 3.92 44.9 0 1 182.02 241.92
  L 217.18 263.08
  A 1.27 1.27 0.0 0 0 218.90 262.68
  L 219.16 262.27
  Q 220.08 260.83 218.61 259.95
  L 180.93 237.34
  A 1.82 1.80 -44.7 0 0 179.08 237.34"
/>
<path stroke="#abd2ff" vector-effect="non-scaling-stroke" d="
  M 212.92 253.27
  A 0.30 0.30 0.0 0 0 213.37 253.01
  L 213.39 242.43
  A 0.30 0.30 0.0 0 0 213.09 242.13
  L 205.30 242.14
  A 0.30 0.30 0.0 0 0 205.00 242.44
  L 205.00 248.40
  A 0.30 0.30 0.0 0 0 205.15 248.66
  L 212.92 253.27"
/>
<path stroke="#abd2ff" vector-effect="non-scaling-stroke" d="
  M 213.38 264.31
  A 0.47 0.47 0.0 0 0 213.15 263.90
  L 180.26 244.09
  A 0.47 0.47 0.0 0 0 179.78 244.09
  L 146.85 263.91
  A 0.47 0.47 0.0 0 0 146.62 264.32
  L 146.63 308.33
  A 0.47 0.47 0.0 0 0 147.10 308.80
  L 212.88 308.81
  A 0.47 0.47 0.0 0 0 213.35 308.34
  L 213.38 264.31"
/>
<path stroke="#8ac0ff" vector-effect="non-scaling-stroke" d="
  M 218.91 313.01
  A 1.33 1.33 0.0 0 0 217.58 311.68
  L 142.48 311.68
  A 1.33 1.33 0.0 0 0 141.15 313.01
  L 141.15 313.15
  A 1.33 1.33 0.0 0 0 142.48 314.48
  L 217.58 314.48
  A 1.33 1.33 0.0 0 0 218.91 313.15
  L 218.91 313.01"
/>
<path stroke="#abd2ff" vector-effect="non-scaling-stroke" d="
  M 181.26 251.46
  L 181.44 249.95
  A 0.74 0.74 0.0 0 0 180.71 249.12
  L 179.19 249.11
  Q 178.49 249.11 178.56 249.81
  L 178.69 251.22
  Q 178.75 251.77 178.20 251.84
  C 164.27 253.70 154.28 264.13 155.03 278.48
  A 1.19 1.18 -2.0 0 0 156.24 279.60
  Q 158.99 279.55 161.59 279.71
  C 164.22 279.87 165.52 282.32 167.85 282.92
  C 170.17 283.52 172.18 281.22 173.60 279.77
  A 1.11 1.10 42.7 0 1 175.12 279.71
  L 178.39 282.54
  A 0.61 0.60 -70.0 0 1 178.60 283.00
  Q 178.72 295.89 178.57 299.50
  C 178.18 308.38 190.07 308.24 189.87 299.76
  Q 189.85 299.10 189.20 299.07
  L 187.73 299.00
  Q 186.98 298.97 187.02 299.71
  C 187.23 304.09 181.49 304.19 181.45 300.75
  Q 181.34 292.01 181.38 283.24
  Q 181.38 282.76 181.74 282.45
  L 184.82 279.68
  A 1.16 1.16 0.0 0 1 186.47 279.79
  C 190.17 284.07 191.71 283.46 195.92 280.66
  C 198.16 279.15 201.08 279.57 203.71 279.64
  A 1.18 1.17 2.8 0 0 204.92 278.55
  C 205.97 264.70 195.61 253.19 181.68 251.98
  Q 181.20 251.94 181.26 251.46"
/>
<path stroke="#8ac0ff" vector-effect="non-scaling-stroke" d="
  M 180.55 279.85
  C 184.61 275.98 186.39 275.28 190.52 279.91
  A 1.16 1.15 -43.4 0 0 192.20 279.95
  Q 196.12 276.02 201.73 276.95
  A 0.48 0.47 3.0 0 0 202.28 276.46
  C 201.87 267.70 197.33 260.58 189.36 256.80
  C 174.98 249.97 158.52 260.13 157.75 275.99
  Q 157.71 276.91 158.63 276.85
  C 163.51 276.52 164.56 277.76 168.36 280.21
  A 0.75 0.75 0.0 0 0 169.29 280.10
  C 170.89 278.46 172.70 276.03 175.50 276.82
  C 177.05 277.26 178.28 278.82 179.56 279.89
  A 0.75 0.74 -47.1 0 0 180.55 279.85"
/>
<path stroke="#8ac0ff" vector-effect="non-scaling-stroke" d="
  M 180.26 260.23
  C 186.69 260.25 192.51 264.22 195.15 269.94
  Q 195.41 270.50 196.00 270.30
  L 197.24 269.87
  A 0.74 0.72 -20.0 0 0 197.69 268.93
  C 195.12 261.88 187.44 257.72 180.25 257.37
  Q 180.03 257.36 180.02 257.58
  L 180.00 259.97
  A 0.26 0.26 0.0 0 0 180.26 260.23"
/>
<path stroke="#abd2ff" vector-effect="non-scaling-stroke" d="
  M 252.63 345.69
  L 252.63 340.89
  A 0.76 0.76 0.0 0 0 251.88 340.13
  L 250.65 340.13
  A 2.91 2.78 0.1 0 0 247.73 342.91
  L 247.73 343.67
  A 2.91 2.78 0.1 0 0 250.63 346.45
  L 251.86 346.45
  A 0.76 0.76 0.0 0 0 252.63 345.69"
/>
<path stroke="#abd2ff" vector-effect="non-scaling-stroke" d="
  M 129.4172 346.1758
  A 3.77 3.48 105.9 0 0 133.7969 343.5034
  A 3.77 3.48 105.9 0 0 131.4828 338.9242
  A 3.77 3.48 105.9 0 0 127.1031 341.5966
  A 3.77 3.48 105.9 0 0 129.4172 346.1758"
/>
<path stroke="#abd2ff" vector-effect="non-scaling-stroke" d="
  M 164.84 340.91
  L 170.78 340.89
  A 0.19 0.19 0.0 0 0 170.97 340.70
  L 170.97 340.59
  A 3.06 2.34 -0.1 0 0 167.91 338.26
  L 167.71 338.26
  A 3.06 2.34 -0.1 0 0 164.65 340.61
  L 164.65 340.72
  A 0.19 0.19 0.0 0 0 164.84 340.91"
/>
<path stroke="#abd2ff" vector-effect="non-scaling-stroke" d="
  M 218.3386 346.2598
  A 3.51 3.25 99.7 0 0 222.1335 343.3476
  A 3.51 3.25 99.7 0 0 219.5214 339.3402
  A 3.51 3.25 99.7 0 0 215.7265 342.2524
  A 3.51 3.25 99.7 0 0 218.3386 346.2598"
/>
<path stroke="#808080" vector-effect="non-scaling-stroke" d="
  M 203.4262 629.5185
  A 2.47 1.51 88.0 0 0 204.8491 626.9973
  A 2.47 1.51 88.0 0 0 203.2538 624.5815
  A 2.47 1.51 88.0 0 0 201.8309 627.1027
  A 2.47 1.51 88.0 0 0 203.4262 629.5185"
/>
<path stroke="#808080" vector-effect="non-scaling-stroke" d="
  M 163.30 627.36
  Q 162.69 627.73 163.35 627.99
  Q 164.07 628.27 164.71 627.98
  A 0.37 0.36 47.9 0 0 164.74 627.33
  Q 164.02 626.92 163.30 627.36"
/>
<path stroke="#808080" vector-effect="non-scaling-stroke" d="
  M 163.30 629.17
  Q 162.70 629.34 163.22 629.69
  Q 164.02 630.22 164.81 629.63
  Q 165.45 629.15 164.65 629.06
  Q 163.97 628.98 163.30 629.17"
/>
<path stroke="#808080" vector-effect="non-scaling-stroke" d="
  M 183.03 628.43
  A 1.22 1.22 0.0 0 0 181.81 627.21
  A 1.22 1.22 0.0 0 0 180.59 628.43
  A 1.22 1.22 0.0 0 0 181.81 629.65
  A 1.22 1.22 0.0 0 0 183.03 628.43"
/>
</g>
<path fill="#ffffff" d="
  M 0.00 0.00
  L 360.00 0.00
  L 360.00 640.00
  L 0.00 640.00
  L 0.00 0.00
  Z
  M 216.52 265.93
  Q 220.74 266.43 221.98 262.72
  C 223.29 258.80 219.51 257.13 216.59 255.52
  Q 216.13 255.27 216.13 254.75
  L 216.12 242.48
  Q 216.12 241.92 216.59 241.64
  C 219.08 240.17 219.81 237.20 217.79 235.12
  Q 216.59 233.89 213.83 233.80
  C 210.77 233.71 203.35 233.00 200.90 234.74
  C 198.92 236.15 199.03 240.24 201.47 241.46
  Q 202.25 241.85 202.25 242.72
  L 202.25 246.02
  Q 202.25 246.90 201.49 246.45
  L 182.03 234.77
  A 3.95 3.92 45.0 0 0 177.98 234.76
  Q 159.28 245.97 140.55 257.22
  C 135.46 260.28 137.87 266.58 143.45 265.88
  Q 143.87 265.83 143.87 266.25
  L 143.87 308.40
  A 0.46 0.45 1.8 0 1 143.38 308.85
  C 137.00 308.34 135.86 317.23 144.01 317.24
  Q 180.88 317.33 217.75 317.24
  C 223.02 317.23 223.35 308.38 216.60 308.85
  A 0.41 0.41 0.0 0 1 216.16 308.44
  L 216.13 266.27
  Q 216.13 265.88 216.52 265.93
  Z
  M 109.03 336.21
  Q 107.89 336.17 107.89 335.03
  L 107.84 328.64
  A 1.41 1.41 0.0 0 0 106.38 327.24
  L 105.82 327.26
  Q 103.72 327.32 103.70 329.42
  L 103.48 348.56
  A 1.67 1.66 1.0 0 0 105.11 350.24
  L 105.83 350.26
  A 1.86 1.85 0.8 0 0 107.73 348.42
  L 107.77 340.45
  A 0.28 0.28 0.0 0 1 108.05 340.17
  L 115.72 339.95
  Q 116.00 339.94 116.00 340.22
  L 116.00 348.60
  A 1.66 1.66 0.0 0 0 117.66 350.26
  L 118.09 350.26
  Q 120.20 350.26 120.22 348.16
  L 120.40 328.95
  A 1.69 1.68 89.8 0 0 118.70 327.25
  L 118.14 327.26
  Q 116.32 327.28 116.24 329.10
  L 115.96 335.25
  Q 115.91 336.41 114.75 336.37
  L 109.03 336.21
  Z
  M 189.74 342.66
  Q 189.89 345.07 187.87 345.86
  C 178.36 349.61 179.48 327.46 188.51 332.09
  A 1.55 1.51 -89.2 0 1 189.19 332.81
  L 190.26 335.24
  Q 190.50 335.76 191.03 335.96
  Q 191.97 336.32 192.84 335.97
  Q 193.31 335.78 193.43 335.29
  C 195.35 327.46 184.82 325.14 180.23 329.43
  C 173.61 335.60 176.24 352.99 188.75 350.22
  C 193.83 349.10 194.14 344.46 193.78 340.23
  A 1.58 1.57 -88.2 0 0 192.44 338.79
  Q 189.75 338.39 188.49 338.61
  Q 183.29 339.49 187.71 342.37
  Q 187.81 342.44 189.16 342.21
  A 0.50 0.49 -6.9 0 1 189.74 342.66
  Z
  M 252.06 336.46
  C 247.17 337.01 243.70 337.83 243.89 343.75
  C 244.10 350.05 249.62 350.21 254.31 350.27
  Q 256.36 350.30 256.39 348.00
  Q 256.54 338.86 256.49 329.57
  Q 256.47 327.74 254.65 327.58
  L 254.25 327.54
  A 1.47 1.47 0.0 0 0 252.65 329.00
  L 252.61 335.84
  Q 252.61 336.40 252.06 336.46
  Z
  M 234.92 335.59
  C 234.12 332.70 230.74 333.43 230.70 336.50
  Q 230.60 345.17 230.80 348.92
  A 1.54 1.54 0.0 0 0 232.28 350.38
  L 232.85 350.40
  A 2.06 2.06 0.0 0 0 234.98 348.35
  L 235.01 341.14
  A 1.33 1.32 66.5 0 1 235.36 340.24
  Q 238.02 337.34 241.58 339.25
  A 1.18 1.17 -58.7 0 0 243.11 338.87
  L 243.26 338.66
  Q 244.16 337.34 242.93 336.32
  Q 239.40 333.38 235.54 335.83
  Q 235.07 336.12 234.92 335.59
  Z
  M 144.21 336.53
  L 144.02 335.71
  Q 143.91 335.21 143.48 334.92
  Q 142.79 334.44 141.92 334.63
  A 1.52 1.52 0.0 0 0 140.73 336.13
  L 140.82 347.92
  Q 140.83 349.73 142.64 349.84
  L 143.14 349.87
  A 1.50 1.50 0.0 0 0 144.73 348.41
  L 144.91 341.23
  A 1.65 1.64 -87.5 0 1 146.65 339.63
  L 146.93 339.65
  A 1.27 1.26 1.7 0 1 148.13 340.91
  L 148.19 348.03
  Q 148.20 349.69 149.85 349.86
  L 150.19 349.89
  A 1.18 1.17 -86.7 0 0 151.49 348.73
  L 151.54 340.49
  A 1.04 1.04 0.0 0 1 152.52 339.46
  L 152.85 339.44
  A 1.42 1.42 0.0 0 1 154.36 340.85
  L 154.42 348.67
  A 1.30 1.29 -89.3 0 0 155.67 349.96
  L 156.15 349.98
  Q 157.81 350.04 157.95 348.38
  C 158.31 344.04 159.29 332.02 150.78 336.43
  A 0.70 0.70 0.0 0 1 150.05 336.38
  Q 147.21 334.33 144.71 336.69
  Q 144.32 337.05 144.21 336.53
  Z
  M 203.12 346.25
  A 2.49 2.48 87.3 0 1 200.53 343.88
  L 200.14 335.74
  A 1.22 1.22 0.0 0 0 198.74 334.59
  L 198.24 334.67
  A 1.96 1.95 -3.4 0 0 196.57 336.54
  C 196.36 342.94 195.19 352.43 205.46 349.88
  C 210.94 348.52 209.74 340.34 209.38 336.16
  A 1.56 1.56 0.0 0 0 207.75 334.74
  L 207.19 334.76
  A 1.81 1.80 -1.3 0 0 205.46 336.56
  L 205.45 344.35
  A 1.88 1.87 89.0 0 1 203.65 346.22
  L 203.12 346.25
  Z
  M 130.3125 350.3961
  A 7.88 7.61 91.8 0 0 138.1662 342.7590
  A 7.88 7.61 91.8 0 0 130.8075 334.6439
  A 7.88 7.61 91.8 0 0 122.9538 342.2810
  A 7.88 7.61 91.8 0 0 130.3125 350.3961
  Z
  M 165.01 343.86
  L 171.95 343.84
  A 2.51 2.51 0.0 0 0 174.38 340.69
  L 174.15 339.81
  Q 173.14 335.91 169.17 335.19
  C 157.55 333.09 156.58 354.40 172.58 348.93
  A 2.09 2.08 77.0 0 0 173.97 346.70
  L 173.91 346.23
  A 0.94 0.93 -13.3 0 0 172.67 345.47
  C 170.60 346.20 164.89 347.33 164.43 344.55
  Q 164.31 343.86 165.01 343.86
  Z
  M 224.12 348.04
  C 224.77 348.57 225.18 349.34 225.90 349.59
  Q 227.17 350.04 227.89 348.52
  A 1.79 1.78 44.1 0 0 227.86 346.93
  C 226.31 343.90 225.76 339.19 223.51 337.25
  C 219.20 333.53 212.56 336.83 212.21 342.27
  Q 211.67 350.77 220.54 349.70
  Q 222.25 349.49 223.35 348.12
  Q 223.69 347.70 224.12 348.04
  Z
  M 177.31 624.41
  A 0.40 0.40 0.0 0 0 178.04 624.57
  Q 178.57 623.79 177.89 623.19
  A 0.43 0.43 0.0 0 0 177.18 623.58
  L 177.31 624.41
  Z
  M 195.15 625.27
  L 195.22 630.44
  Q 195.23 630.87 195.66 630.92
  L 196.04 630.97
  A 0.49 0.49 0.0 0 0 196.58 630.49
  L 196.63 623.66
  Q 196.63 622.90 195.88 623.01
  Q 194.70 623.19 193.67 623.86
  Q 193.01 624.29 193.73 624.63
  Q 194.15 624.83 194.65 624.80
  Q 195.15 624.77 195.15 625.27
  Z
  M 203.3438 630.9600
  A 3.95 2.97 89.8 0 0 206.3000 626.9996
  A 3.95 2.97 89.8 0 0 203.3162 623.0600
  A 3.95 2.97 89.8 0 0 200.3600 627.0204
  A 3.95 2.97 89.8 0 0 203.3438 630.9600
  Z
  M 157.76 627.99
  L 156.38 623.90
  A 0.93 0.93 0.0 0 0 155.36 623.28
  L 154.96 623.34
  A 0.46 0.45 75.2 0 0 154.61 623.95
  L 156.99 630.46
  A 1.20 1.20 0.0 0 0 159.25 630.43
  L 161.32 624.32
  A 0.72 0.71 19.2 0 0 160.88 623.42
  L 160.51 623.28
  A 0.48 0.48 0.0 0 0 159.89 623.58
  L 158.38 627.99
  Q 158.07 628.90 157.76 627.99
  Z
  M 169.50 627.10
  L 170.79 627.17
  A 0.53 0.53 0.0 0 0 171.30 626.42
  Q 171.16 626.10 170.82 625.92
  C 170.25 625.61 168.36 625.85 167.45 625.67
  Q 166.98 625.58 166.98 626.06
  L 166.99 630.49
  Q 166.99 631.07 167.57 631.00
  L 167.82 630.97
  Q 168.44 630.89 168.51 630.26
  L 168.75 627.75
  A 0.72 0.72 0.0 0 1 169.50 627.10
  Z
  M 165.60 630.29
  L 165.99 627.06
  A 0.90 0.90 0.0 0 0 165.21 626.05
  L 163.99 625.90
  A 2.27 2.21 -83.0 0 0 161.52 627.89
  L 161.45 628.40
  A 2.27 2.21 -83.0 0 0 163.37 630.93
  L 164.59 631.08
  A 0.90 0.90 0.0 0 0 165.60 630.29
  Z
  M 174.36 629.87
  Q 173.39 629.94 172.67 629.24
  Q 172.45 629.02 172.27 629.27
  L 172.10 629.50
  A 0.68 0.68 0.0 0 0 172.26 630.46
  Q 173.63 631.42 175.16 630.84
  A 1.40 1.40 0.0 0 0 175.08 628.19
  L 174.10 627.89
  Q 172.72 627.45 174.03 626.81
  Q 174.47 626.59 175.36 627.16
  Q 175.66 627.34 175.76 627.01
  L 175.83 626.76
  A 0.39 0.39 0.0 0 0 175.69 626.32
  Q 174.01 625.06 172.38 626.33
  A 1.09 1.09 0.0 0 0 172.51 628.14
  L 174.50 629.28
  A 0.32 0.32 0.0 0 1 174.36 629.87
  Z
  M 178.3868 626.4025
  A 0.66 0.66 0.0 0 0 177.7291 625.7402
  L 177.6491 625.7399
  A 0.66 0.66 0.0 0 0 176.9868 626.3976
  L 176.9732 630.2775
  A 0.66 0.66 0.0 0 0 177.6309 630.9398
  L 177.7109 630.9401
  A 0.66 0.66 0.0 0 0 178.3732 630.2824
  L 178.3868 626.4025
  Z
  M 184.57 628.42
  A 2.68 2.68 0.0 0 0 181.89 625.74
  A 2.68 2.68 0.0 0 0 179.21 628.42
  A 2.68 2.68 0.0 0 0 181.89 631.10
  A 2.68 2.68 0.0 0 0 184.57 628.42
  Z
  M 187.87 627.32
  Q 188.56 627.38 188.59 628.06
  L 188.69 630.38
  A 0.57 0.57 0.0 0 0 189.19 630.92
  L 189.48 630.96
  Q 189.85 631.01 189.89 630.64
  Q 190.15 628.50 189.46 626.49
  A 0.72 0.72 0.0 0 0 188.81 626.01
  L 185.87 625.86
  A 0.52 0.52 0.0 0 0 185.33 626.39
  L 185.45 630.48
  Q 185.46 630.88 185.87 630.89
  L 186.35 630.89
  A 0.38 0.38 0.0 0 0 186.73 630.52
  L 186.75 628.00
  Q 186.75 627.23 187.53 627.29
  L 187.87 627.32
  Z
  M 199.50 631.05
  A 0.65 0.65 0.0 0 0 198.85 630.40
  A 0.65 0.65 0.0 0 0 198.20 631.05
  A 0.65 0.65 0.0 0 0 198.85 631.70
  A 0.65 0.65 0.0 0 0 199.50 631.05
  Z"
/>
<path fill="#57a4ff" d="
  M 216.13 266.27
  L 216.16 308.44
  A 0.41 0.41 0.0 0 0 216.60 308.85
  C 223.35 308.38 223.02 317.23 217.75 317.24
  Q 180.88 317.33 144.01 317.24
  C 135.86 317.23 137.00 308.34 143.38 308.85
  A 0.46 0.45 1.8 0 0 143.87 308.40
  L 143.87 266.25
  Q 143.87 265.83 143.45 265.88
  C 137.87 266.58 135.46 260.28 140.55 257.22
  Q 159.28 245.97 177.98 234.76
  A 3.95 3.92 45.0 0 1 182.03 234.77
  L 201.49 246.45
  Q 202.25 246.90 202.25 246.02
  L 202.25 242.72
  Q 202.25 241.85 201.47 241.46
  C 199.03 240.24 198.92 236.15 200.90 234.74
  C 203.35 233.00 210.77 233.71 213.83 233.80
  Q 216.59 233.89 217.79 235.12
  C 219.81 237.20 219.08 240.17 216.59 241.64
  Q 216.12 241.92 216.12 242.48
  L 216.13 254.75
  Q 216.13 255.27 216.59 255.52
  C 219.51 257.13 223.29 258.80 221.98 262.72
  Q 220.74 266.43 216.52 265.93
  Q 216.13 265.88 216.13 266.27
  Z
  M 216.1201 237.9642
  A 1.36 1.36 0.0 0 0 214.7649 236.5995
  L 203.6049 236.5605
  A 1.36 1.36 0.0 0 0 202.2402 237.9158
  L 202.2399 237.9958
  A 1.36 1.36 0.0 0 0 203.5951 239.3605
  L 214.7551 239.3995
  A 1.36 1.36 0.0 0 0 216.1198 238.0442
  L 216.1201 237.9642
  Z
  M 179.08 237.34
  L 141.37 259.97
  Q 139.89 260.86 140.88 262.27
  L 141.18 262.69
  A 1.27 1.26 -32.7 0 0 142.87 263.05
  L 177.97 241.92
  A 3.93 3.92 44.9 0 1 182.02 241.92
  L 217.18 263.08
  A 1.27 1.27 0.0 0 0 218.90 262.68
  L 219.16 262.27
  Q 220.08 260.83 218.61 259.95
  L 180.93 237.34
  A 1.82 1.80 -44.7 0 0 179.08 237.34
  Z
  M 212.92 253.27
  A 0.30 0.30 0.0 0 0 213.37 253.01
  L 213.39 242.43
  A 0.30 0.30 0.0 0 0 213.09 242.13
  L 205.30 242.14
  A 0.30 0.30 0.0 0 0 205.00 242.44
  L 205.00 248.40
  A 0.30 0.30 0.0 0 0 205.15 248.66
  L 212.92 253.27
  Z
  M 213.38 264.31
  A 0.47 0.47 0.0 0 0 213.15 263.90
  L 180.26 244.09
  A 0.47 0.47 0.0 0 0 179.78 244.09
  L 146.85 263.91
  A 0.47 0.47 0.0 0 0 146.62 264.32
  L 146.63 308.33
  A 0.47 0.47 0.0 0 0 147.10 308.80
  L 212.88 308.81
  A 0.47 0.47 0.0 0 0 213.35 308.34
  L 213.38 264.31
  Z
  M 218.91 313.01
  A 1.33 1.33 0.0 0 0 217.58 311.68
  L 142.48 311.68
  A 1.33 1.33 0.0 0 0 141.15 313.01
  L 141.15 313.15
  A 1.33 1.33 0.0 0 0 142.48 314.48
  L 217.58 314.48
  A 1.33 1.33 0.0 0 0 218.91 313.15
  L 218.91 313.01
  Z"
/>
<rect fill="#bddbff" x="-6.94" y="-1.40" transform="translate(209.18,237.98) rotate(0.2)" width="13.88" height="2.80" rx="1.36"/>
<path fill="#bddbff" d="
  M 141.37 259.97
  L 179.08 237.34
  A 1.82 1.80 -44.7 0 1 180.93 237.34
  L 218.61 259.95
  Q 220.08 260.83 219.16 262.27
  L 218.90 262.68
  A 1.27 1.27 0.0 0 1 217.18 263.08
  L 182.02 241.92
  A 3.93 3.92 44.9 0 0 177.97 241.92
  L 142.87 263.05
  A 1.27 1.26 -32.7 0 1 141.18 262.69
  L 140.88 262.27
  Q 139.89 260.86 141.37 259.97
  Z"
/>
<path fill="#ffffff" d="
  M 212.92 253.27
  L 205.15 248.66
  A 0.30 0.30 0.0 0 1 205.00 248.40
  L 205.00 242.44
  A 0.30 0.30 0.0 0 1 205.30 242.14
  L 213.09 242.13
  A 0.30 0.30 0.0 0 1 213.39 242.43
  L 213.37 253.01
  A 0.30 0.30 0.0 0 1 212.92 253.27
  Z"
/>
<path fill="#ffffff" d="
  M 213.38 264.31
  L 213.35 308.34
  A 0.47 0.47 0.0 0 1 212.88 308.81
  L 147.10 308.80
  A 0.47 0.47 0.0 0 1 146.63 308.33
  L 146.62 264.32
  A 0.47 0.47 0.0 0 1 146.85 263.91
  L 179.78 244.09
  A 0.47 0.47 0.0 0 1 180.26 244.09
  L 213.15 263.90
  A 0.47 0.47 0.0 0 1 213.38 264.31
  Z
  M 181.26 251.46
  L 181.44 249.95
  A 0.74 0.74 0.0 0 0 180.71 249.12
  L 179.19 249.11
  Q 178.49 249.11 178.56 249.81
  L 178.69 251.22
  Q 178.75 251.77 178.20 251.84
  C 164.27 253.70 154.28 264.13 155.03 278.48
  A 1.19 1.18 -2.0 0 0 156.24 279.60
  Q 158.99 279.55 161.59 279.71
  C 164.22 279.87 165.52 282.32 167.85 282.92
  C 170.17 283.52 172.18 281.22 173.60 279.77
  A 1.11 1.10 42.7 0 1 175.12 279.71
  L 178.39 282.54
  A 0.61 0.60 -70.0 0 1 178.60 283.00
  Q 178.72 295.89 178.57 299.50
  C 178.18 308.38 190.07 308.24 189.87 299.76
  Q 189.85 299.10 189.20 299.07
  L 187.73 299.00
  Q 186.98 298.97 187.02 299.71
  C 187.23 304.09 181.49 304.19 181.45 300.75
  Q 181.34 292.01 181.38 283.24
  Q 181.38 282.76 181.74 282.45
  L 184.82 279.68
  A 1.16 1.16 0.0 0 1 186.47 279.79
  C 190.17 284.07 191.71 283.46 195.92 280.66
  C 198.16 279.15 201.08 279.57 203.71 279.64
  A 1.18 1.17 2.8 0 0 204.92 278.55
  C 205.97 264.70 195.61 253.19 181.68 251.98
  Q 181.20 251.94 181.26 251.46
  Z"
/>
<path fill="#57a4ff" d="
  M 181.68 251.98
  C 195.61 253.19 205.97 264.70 204.92 278.55
  A 1.18 1.17 2.8 0 1 203.71 279.64
  C 201.08 279.57 198.16 279.15 195.92 280.66
  C 191.71 283.46 190.17 284.07 186.47 279.79
  A 1.16 1.16 0.0 0 0 184.82 279.68
  L 181.74 282.45
  Q 181.38 282.76 181.38 283.24
  Q 181.34 292.01 181.45 300.75
  C 181.49 304.19 187.23 304.09 187.02 299.71
  Q 186.98 298.97 187.73 299.00
  L 189.20 299.07
  Q 189.85 299.10 189.87 299.76
  C 190.07 308.24 178.18 308.38 178.57 299.50
  Q 178.72 295.89 178.60 283.00
  A 0.61 0.60 -70.0 0 0 178.39 282.54
  L 175.12 279.71
  A 1.11 1.10 42.7 0 0 173.60 279.77
  C 172.18 281.22 170.17 283.52 167.85 282.92
  C 165.52 282.32 164.22 279.87 161.59 279.71
  Q 158.99 279.55 156.24 279.60
  A 1.19 1.18 -2.0 0 1 155.03 278.48
  C 154.28 264.13 164.27 253.70 178.20 251.84
  Q 178.75 251.77 178.69 251.22
  L 178.56 249.81
  Q 178.49 249.11 179.19 249.11
  L 180.71 249.12
  A 0.74 0.74 0.0 0 1 181.44 249.95
  L 181.26 251.46
  Q 181.20 251.94 181.68 251.98
  Z
  M 180.55 279.85
  C 184.61 275.98 186.39 275.28 190.52 279.91
  A 1.16 1.15 -43.4 0 0 192.20 279.95
  Q 196.12 276.02 201.73 276.95
  A 0.48 0.47 3.0 0 0 202.28 276.46
  C 201.87 267.70 197.33 260.58 189.36 256.80
  C 174.98 249.97 158.52 260.13 157.75 275.99
  Q 157.71 276.91 158.63 276.85
  C 163.51 276.52 164.56 277.76 168.36 280.21
  A 0.75 0.75 0.0 0 0 169.29 280.10
  C 170.89 278.46 172.70 276.03 175.50 276.82
  C 177.05 277.26 178.28 278.82 179.56 279.89
  A 0.75 0.74 -47.1 0 0 180.55 279.85
  Z"
/>
<path fill="#bddbff" d="
  M 190.52 279.91
  C 186.39 275.28 184.61 275.98 180.55 279.85
  A 0.75 0.74 -47.1 0 1 179.56 279.89
  C 178.28 278.82 177.05 277.26 175.50 276.82
  C 172.70 276.03 170.89 278.46 169.29 280.10
  A 0.75 0.75 0.0 0 1 168.36 280.21
  C 164.56 277.76 163.51 276.52 158.63 276.85
  Q 157.71 276.91 157.75 275.99
  C 158.52 260.13 174.98 249.97 189.36 256.80
  C 197.33 260.58 201.87 267.70 202.28 276.46
  A 0.48 0.47 3.0 0 1 201.73 276.95
  Q 196.12 276.02 192.20 279.95
  A 1.16 1.15 -43.4 0 1 190.52 279.91
  Z
  M 180.26 260.23
  C 186.69 260.25 192.51 264.22 195.15 269.94
  Q 195.41 270.50 196.00 270.30
  L 197.24 269.87
  A 0.74 0.72 -20.0 0 0 197.69 268.93
  C 195.12 261.88 187.44 257.72 180.25 257.37
  Q 180.03 257.36 180.02 257.58
  L 180.00 259.97
  A 0.26 0.26 0.0 0 0 180.26 260.23
  Z"
/>
<path fill="#57a4ff" d="
  M 195.15 269.94
  C 192.51 264.22 186.69 260.25 180.26 260.23
  A 0.26 0.26 0.0 0 1 180.00 259.97
  L 180.02 257.58
  Q 180.03 257.36 180.25 257.37
  C 187.44 257.72 195.12 261.88 197.69 268.93
  A 0.74 0.72 -20.0 0 1 197.24 269.87
  L 196.00 270.30
  Q 195.41 270.50 195.15 269.94
  Z"
/>
<rect fill="#bddbff" x="141.15" y="311.68" width="77.76" height="2.80" rx="1.33"/>
<path fill="#57a4ff" d="
  M 115.96 335.25
  L 116.24 329.10
  Q 116.32 327.28 118.14 327.26
  L 118.70 327.25
  A 1.69 1.68 89.8 0 1 120.40 328.95
  L 120.22 348.16
  Q 120.20 350.26 118.09 350.26
  L 117.66 350.26
  A 1.66 1.66 0.0 0 1 116.00 348.60
  L 116.00 340.22
  Q 116.00 339.94 115.72 339.95
  L 108.05 340.17
  A 0.28 0.28 0.0 0 0 107.77 340.45
  L 107.73 348.42
  A 1.86 1.85 0.8 0 1 105.83 350.26
  L 105.11 350.24
  A 1.67 1.66 1.0 0 1 103.48 348.56
  L 103.70 329.42
  Q 103.72 327.32 105.82 327.26
  L 106.38 327.24
  A 1.41 1.41 0.0 0 1 107.84 328.64
  L 107.89 335.03
  Q 107.89 336.17 109.03 336.21
  L 114.75 336.37
  Q 115.91 336.41 115.96 335.25
  Z"
/>
<path fill="#57a4ff" d="
  M 189.16 342.21
  Q 187.81 342.44 187.71 342.37
  Q 183.29 339.49 188.49 338.61
  Q 189.75 338.39 192.44 338.79
  A 1.58 1.57 -88.2 0 1 193.78 340.23
  C 194.14 344.46 193.83 349.10 188.75 350.22
  C 176.24 352.99 173.61 335.60 180.23 329.43
  C 184.82 325.14 195.35 327.46 193.43 335.29
  Q 193.31 335.78 192.84 335.97
  Q 191.97 336.32 191.03 335.96
  Q 190.50 335.76 190.26 335.24
  L 189.19 332.81
  A 1.55 1.51 -89.2 0 0 188.51 332.09
  C 179.48 327.46 178.36 349.61 187.87 345.86
  Q 189.89 345.07 189.74 342.66
  A 0.50 0.49 -6.9 0 0 189.16 342.21
  Z"
/>
<path fill="#57a4ff" d="
  M 252.61 335.84
  L 252.65 329.00
  A 1.47 1.47 0.0 0 1 254.25 327.54
  L 254.65 327.58
  Q 256.47 327.74 256.49 329.57
  Q 256.54 338.86 256.39 348.00
  Q 256.36 350.30 254.31 350.27
  C 249.62 350.21 244.10 350.05 243.89 343.75
  C 243.70 337.83 247.17 337.01 252.06 336.46
  Q 252.61 336.40 252.61 335.84
  Z
  M 252.63 345.69
  L 252.63 340.89
  A 0.76 0.76 0.0 0 0 251.88 340.13
  L 250.65 340.13
  A 2.91 2.78 0.1 0 0 247.73 342.91
  L 247.73 343.67
  A 2.91 2.78 0.1 0 0 250.63 346.45
  L 251.86 346.45
  A 0.76 0.76 0.0 0 0 252.63 345.69
  Z"
/>
<path fill="#57a4ff" d="
  M 235.54 335.83
  Q 239.40 333.38 242.93 336.32
  Q 244.16 337.34 243.26 338.66
  L 243.11 338.87
  A 1.18 1.17 -58.7 0 1 241.58 339.25
  Q 238.02 337.34 235.36 340.24
  A 1.33 1.32 66.5 0 0 235.01 341.14
  L 234.98 348.35
  A 2.06 2.06 0.0 0 1 232.85 350.40
  L 232.28 350.38
  A 1.54 1.54 0.0 0 1 230.80 348.92
  Q 230.60 345.17 230.70 336.50
  C 230.74 333.43 234.12 332.70 234.92 335.59
  Q 235.07 336.12 235.54 335.83
  Z"
/>
<path fill="#57a4ff" d="
  M 144.71 336.69
  Q 147.21 334.33 150.05 336.38
  A 0.70 0.70 0.0 0 0 150.78 336.43
  C 159.29 332.02 158.31 344.04 157.95 348.38
  Q 157.81 350.04 156.15 349.98
  L 155.67 349.96
  A 1.30 1.29 -89.3 0 1 154.42 348.67
  L 154.36 340.85
  A 1.42 1.42 0.0 0 0 152.85 339.44
  L 152.52 339.46
  A 1.04 1.04 0.0 0 0 151.54 340.49
  L 151.49 348.73
  A 1.18 1.17 -86.7 0 1 150.19 349.89
  L 149.85 349.86
  Q 148.20 349.69 148.19 348.03
  L 148.13 340.91
  A 1.27 1.26 1.7 0 0 146.93 339.65
  L 146.65 339.63
  A 1.65 1.64 -87.5 0 0 144.91 341.23
  L 144.73 348.41
  A 1.50 1.50 0.0 0 1 143.14 349.87
  L 142.64 349.84
  Q 140.83 349.73 140.82 347.92
  L 140.73 336.13
  A 1.52 1.52 0.0 0 1 141.92 334.63
  Q 142.79 334.44 143.48 334.92
  Q 143.91 335.21 144.02 335.71
  L 144.21 336.53
  Q 144.32 337.05 144.71 336.69
  Z"
/>
<path fill="#57a4ff" d="
  M 203.12 346.25
  L 203.65 346.22
  A 1.88 1.87 89.0 0 0 205.45 344.35
  L 205.46 336.56
  A 1.81 1.80 -1.3 0 1 207.19 334.76
  L 207.75 334.74
  A 1.56 1.56 0.0 0 1 209.38 336.16
  C 209.74 340.34 210.94 348.52 205.46 349.88
  C 195.19 352.43 196.36 342.94 196.57 336.54
  A 1.96 1.95 -3.4 0 1 198.24 334.67
  L 198.74 334.59
  A 1.22 1.22 0.0 0 1 200.14 335.74
  L 200.53 343.88
  A 2.49 2.48 87.3 0 0 203.12 346.25
  Z"
/>
<path fill="#57a4ff" d="
  M 130.3125 350.3961
  A 7.88 7.61 91.8 0 1 122.9538 342.2810
  A 7.88 7.61 91.8 0 1 130.8075 334.6439
  A 7.88 7.61 91.8 0 1 138.1662 342.7590
  A 7.88 7.61 91.8 0 1 130.3125 350.3961
  Z
  M 129.4172 346.1758
  A 3.77 3.48 105.9 0 0 133.7969 343.5034
  A 3.77 3.48 105.9 0 0 131.4828 338.9242
  A 3.77 3.48 105.9 0 0 127.1031 341.5966
  A 3.77 3.48 105.9 0 0 129.4172 346.1758
  Z"
/>
<path fill="#57a4ff" d="
  M 164.43 344.55
  C 164.89 347.33 170.60 346.20 172.67 345.47
  A 0.94 0.93 -13.3 0 1 173.91 346.23
  L 173.97 346.70
  A 2.09 2.08 77.0 0 1 172.58 348.93
  C 156.58 354.40 157.55 333.09 169.17 335.19
  Q 173.14 335.91 174.15 339.81
  L 174.38 340.69
  A 2.51 2.51 0.0 0 1 171.95 343.84
  L 165.01 343.86
  Q 164.31 343.86 164.43 344.55
  Z
  M 164.84 340.91
  L 170.78 340.89
  A 0.19 0.19 0.0 0 0 170.97 340.70
  L 170.97 340.59
  A 3.06 2.34 -0.1 0 0 167.91 338.26
  L 167.71 338.26
  A 3.06 2.34 -0.1 0 0 164.65 340.61
  L 164.65 340.72
  A 0.19 0.19 0.0 0 0 164.84 340.91
  Z"
/>
<path fill="#57a4ff" d="
  M 223.35 348.12
  Q 222.25 349.49 220.54 349.70
  Q 211.67 350.77 212.21 342.27
  C 212.56 336.83 219.20 333.53 223.51 337.25
  C 225.76 339.19 226.31 343.90 227.86 346.93
  A 1.79 1.78 44.1 0 1 227.89 348.52
  Q 227.17 350.04 225.90 349.59
  C 225.18 349.34 224.77 348.57 224.12 348.04
  Q 223.69 347.70 223.35 348.12
  Z
  M 218.3386 346.2598
  A 3.51 3.25 99.7 0 0 222.1335 343.3476
  A 3.51 3.25 99.7 0 0 219.5214 339.3402
  A 3.51 3.25 99.7 0 0 215.7265 342.2524
  A 3.51 3.25 99.7 0 0 218.3386 346.2598
  Z"
/>
<path fill="#ffffff" d="
  M 164.84 340.91
  A 0.19 0.19 0.0 0 1 164.65 340.72
  L 164.65 340.61
  A 3.06 2.34 -0.1 0 1 167.71 338.26
  L 167.91 338.26
  A 3.06 2.34 -0.1 0 1 170.97 340.59
  L 170.97 340.70
  A 0.19 0.19 0.0 0 1 170.78 340.89
  L 164.84 340.91
  Z"
/>
<ellipse fill="#ffffff" cx="0.00" cy="0.00" transform="translate(130.45,342.55) rotate(105.9)" rx="3.77" ry="3.48"/>
<ellipse fill="#ffffff" cx="0.00" cy="0.00" transform="translate(218.93,342.80) rotate(99.7)" rx="3.51" ry="3.25"/>
<path fill="#ffffff" d="
  M 252.63 345.69
  A 0.76 0.76 0.0 0 1 251.86 346.45
  L 250.63 346.45
  A 2.91 2.78 0.1 0 1 247.73 343.67
  L 247.73 342.91
  A 2.91 2.78 0.1 0 1 250.65 340.13
  L 251.88 340.13
  A 0.76 0.76 0.0 0 1 252.63 340.89
  L 252.63 345.69
  Z"
/>
<path fill="#000000" d="
  M 177.31 624.41
  L 177.18 623.58
  A 0.43 0.43 0.0 0 1 177.89 623.19
  Q 178.57 623.79 178.04 624.57
  A 0.40 0.40 0.0 0 1 177.31 624.41
  Z"
/>
<path fill="#000000" d="
  M 194.65 624.80
  Q 194.15 624.83 193.73 624.63
  Q 193.01 624.29 193.67 623.86
  Q 194.70 623.19 195.88 623.01
  Q 196.63 622.90 196.63 623.66
  L 196.58 630.49
  A 0.49 0.49 0.0 0 1 196.04 630.97
  L 195.66 630.92
  Q 195.23 630.87 195.22 630.44
  L 195.15 625.27
  Q 195.15 624.77 194.65 624.80
  Z"
/>
<path fill="#000000" d="
  M 203.3438 630.9600
  A 3.95 2.97 89.8 0 1 200.3600 627.0204
  A 3.95 2.97 89.8 0 1 203.3162 623.0600
  A 3.95 2.97 89.8 0 1 206.3000 626.9996
  A 3.95 2.97 89.8 0 1 203.3438 630.9600
  Z
  M 203.4262 629.5185
  A 2.47 1.51 88.0 0 0 204.8491 626.9973
  A 2.47 1.51 88.0 0 0 203.2538 624.5815
  A 2.47 1.51 88.0 0 0 201.8309 627.1027
  A 2.47 1.51 88.0 0 0 203.4262 629.5185
  Z"
/>
<path fill="#000000" d="
  M 158.38 627.99
  L 159.89 623.58
  A 0.48 0.48 0.0 0 1 160.51 623.28
  L 160.88 623.42
  A 0.72 0.71 19.2 0 1 161.32 624.32
  L 159.25 630.43
  A 1.20 1.20 0.0 0 1 156.99 630.46
  L 154.61 623.95
  A 0.46 0.45 75.2 0 1 154.96 623.34
  L 155.36 623.28
  A 0.93 0.93 0.0 0 1 156.38 623.90
  L 157.76 627.99
  Q 158.07 628.90 158.38 627.99
  Z"
/>
<ellipse fill="#ffffff" cx="0.00" cy="0.00" transform="translate(203.34,627.05) rotate(88.0)" rx="2.47" ry="1.51"/>
<path fill="#000000" d="
  M 168.75 627.75
  L 168.51 630.26
  Q 168.44 630.89 167.82 630.97
  L 167.57 631.00
  Q 166.99 631.07 166.99 630.49
  L 166.98 626.06
  Q 166.98 625.58 167.45 625.67
  C 168.36 625.85 170.25 625.61 170.82 625.92
  Q 171.16 626.10 171.30 626.42
  A 0.53 0.53 0.0 0 1 170.79 627.17
  L 169.50 627.10
  A 0.72 0.72 0.0 0 0 168.75 627.75
  Z"
/>
<path fill="#000000" d="
  M 165.60 630.29
  A 0.90 0.90 0.0 0 1 164.59 631.08
  L 163.37 630.93
  A 2.27 2.21 -83.0 0 1 161.45 628.40
  L 161.52 627.89
  A 2.27 2.21 -83.0 0 1 163.99 625.90
  L 165.21 626.05
  A 0.90 0.90 0.0 0 1 165.99 627.06
  L 165.60 630.29
  Z
  M 163.30 627.36
  Q 162.69 627.73 163.35 627.99
  Q 164.07 628.27 164.71 627.98
  A 0.37 0.36 47.9 0 0 164.74 627.33
  Q 164.02 626.92 163.30 627.36
  Z
  M 163.30 629.17
  Q 162.70 629.34 163.22 629.69
  Q 164.02 630.22 164.81 629.63
  Q 165.45 629.15 164.65 629.06
  Q 163.97 628.98 163.30 629.17
  Z"
/>
<path fill="#000000" d="
  M 174.50 629.28
  L 172.51 628.14
  A 1.09 1.09 0.0 0 1 172.38 626.33
  Q 174.01 625.06 175.69 626.32
  A 0.39 0.39 0.0 0 1 175.83 626.76
  L 175.76 627.01
  Q 175.66 627.34 175.36 627.16
  Q 174.47 626.59 174.03 626.81
  Q 172.72 627.45 174.10 627.89
  L 175.08 628.19
  A 1.40 1.40 0.0 0 1 175.16 630.84
  Q 173.63 631.42 172.26 630.46
  A 0.68 0.68 0.0 0 1 172.10 629.50
  L 172.27 629.27
  Q 172.45 629.02 172.67 629.24
  Q 173.39 629.94 174.36 629.87
  A 0.32 0.32 0.0 0 0 174.50 629.28
  Z"
/>
<rect fill="#000000" x="-0.70" y="-2.60" transform="translate(177.68,628.34) rotate(0.2)" width="1.40" height="5.20" rx="0.66"/>
<path fill="#000000" d="
  M 184.57 628.42
  A 2.68 2.68 0.0 0 1 181.89 631.10
  A 2.68 2.68 0.0 0 1 179.21 628.42
  A 2.68 2.68 0.0 0 1 181.89 625.74
  A 2.68 2.68 0.0 0 1 184.57 628.42
  Z
  M 183.03 628.43
  A 1.22 1.22 0.0 0 0 181.81 627.21
  A 1.22 1.22 0.0 0 0 180.59 628.43
  A 1.22 1.22 0.0 0 0 181.81 629.65
  A 1.22 1.22 0.0 0 0 183.03 628.43
  Z"
/>
<path fill="#000000" d="
  M 186.75 628.00
  L 186.73 630.52
  A 0.38 0.38 0.0 0 1 186.35 630.89
  L 185.87 630.89
  Q 185.46 630.88 185.45 630.48
  L 185.33 626.39
  A 0.52 0.52 0.0 0 1 185.87 625.86
  L 188.81 626.01
  A 0.72 0.72 0.0 0 1 189.46 626.49
  Q 190.15 628.50 189.89 630.64
  Q 189.85 631.01 189.48 630.96
  L 189.19 630.92
  A 0.57 0.57 0.0 0 1 188.69 630.38
  L 188.59 628.06
  Q 188.56 627.38 187.87 627.32
  L 187.53 627.29
  Q 186.75 627.23 186.75 628.00
  Z"
/>
<path fill="#ffffff" d="
  M 163.30 627.36
  Q 164.02 626.92 164.74 627.33
  A 0.37 0.36 47.9 0 1 164.71 627.98
  Q 164.07 628.27 163.35 627.99
  Q 162.69 627.73 163.30 627.36
  Z"
/>
<circle fill="#ffffff" cx="181.81" cy="628.43" r="1.22"/>
<path fill="#ffffff" d="
  M 163.30 629.17
  Q 163.97 628.98 164.65 629.06
  Q 165.45 629.15 164.81 629.63
  Q 164.02 630.22 163.22 629.69
  Q 162.70 629.34 163.30 629.17
  Z"
/>
<circle fill="#000000" cx="198.85" cy="631.05" r="0.65"/>
</svg>
